<svg width="612" height="400" viewBox="0 0 612 400" fill="none" xmlns="http://www.w3.org/2000/svg">
<g clip-path="url(#clip0_142_317)">
<rect width="612" height="400" fill="#F7F8FB"/>
<g filter="url(#filter0_d_142_317)">
<rect x="126" y="88" width="360" height="640" rx="16" fill="white"/>
<rect width="360" height="36" transform="translate(126 88)" fill="#073042"/>
<rect x="410" y="99" width="14" height="14" fill="white"/>
<rect x="432" y="99" width="14" height="14" rx="7" fill="white"/>
<path fill-rule="evenodd" clip-rule="evenodd" d="M462 113L470 99H454L462 113Z" fill="white"/>
<path d="M235.316 163.251V165H228.892V163.251H235.316ZM229.507 152.203V165H227.301V152.203H229.507ZM241.503 165.176C240.8 165.176 240.164 165.062 239.596 164.833C239.033 164.599 238.553 164.273 238.154 163.857C237.762 163.441 237.46 162.952 237.249 162.39C237.038 161.827 236.933 161.221 236.933 160.57V160.219C236.933 159.475 237.041 158.801 237.258 158.197C237.475 157.594 237.776 157.078 238.163 156.65C238.55 156.217 239.007 155.886 239.534 155.657C240.062 155.429 240.633 155.314 241.248 155.314C241.928 155.314 242.522 155.429 243.032 155.657C243.542 155.886 243.964 156.208 244.298 156.624C244.638 157.034 244.89 157.523 245.054 158.092C245.224 158.66 245.309 159.287 245.309 159.973V160.878H237.961V159.357H243.217V159.19C243.205 158.81 243.129 158.452 242.988 158.118C242.854 157.784 242.646 157.515 242.364 157.31C242.083 157.104 241.708 157.002 241.239 157.002C240.888 157.002 240.574 157.078 240.299 157.23C240.029 157.377 239.804 157.591 239.622 157.872C239.44 158.153 239.3 158.493 239.2 158.892C239.106 159.284 239.06 159.727 239.06 160.219V160.57C239.06 160.986 239.115 161.373 239.227 161.73C239.344 162.082 239.514 162.39 239.736 162.653C239.959 162.917 240.229 163.125 240.545 163.277C240.861 163.424 241.222 163.497 241.626 163.497C242.136 163.497 242.59 163.395 242.988 163.189C243.387 162.984 243.732 162.694 244.025 162.319L245.142 163.4C244.937 163.699 244.67 163.986 244.342 164.262C244.014 164.531 243.612 164.751 243.138 164.921C242.669 165.091 242.124 165.176 241.503 165.176ZM249.078 155.49L250.889 158.646L252.734 155.49H255.063L252.181 160.157L255.178 165H252.849L250.915 161.713L248.981 165H246.644L249.632 160.157L246.758 155.49H249.078ZM259.281 155.49V165H257.154V155.49H259.281ZM257.014 152.994C257.014 152.672 257.119 152.405 257.33 152.194C257.547 151.978 257.846 151.869 258.227 151.869C258.602 151.869 258.897 151.978 259.114 152.194C259.331 152.405 259.439 152.672 259.439 152.994C259.439 153.311 259.331 153.574 259.114 153.785C258.897 153.996 258.602 154.102 258.227 154.102C257.846 154.102 257.547 153.996 257.33 153.785C257.119 153.574 257.014 153.311 257.014 152.994Z" fill="#018786"/>
<g filter="url(#filter1_dd_142_317)">
<rect x="226" y="175" width="236" height="87" rx="4" fill="white"/>
<path d="M248.327 192.592H244.214V204H242.535V192.592H238.431V191.203H248.327V192.592ZM255.09 204C254.996 203.812 254.92 203.479 254.861 202.998C254.105 203.783 253.203 204.176 252.154 204.176C251.217 204.176 250.446 203.912 249.843 203.385C249.245 202.852 248.946 202.178 248.946 201.363C248.946 200.373 249.321 199.605 250.071 199.061C250.827 198.51 251.888 198.234 253.253 198.234H254.835V197.487C254.835 196.919 254.665 196.468 254.325 196.134C253.985 195.794 253.484 195.624 252.822 195.624C252.242 195.624 251.756 195.771 251.363 196.063C250.971 196.356 250.774 196.711 250.774 197.127H249.14C249.14 196.652 249.307 196.195 249.641 195.756C249.98 195.311 250.438 194.959 251.012 194.701C251.592 194.443 252.228 194.314 252.919 194.314C254.015 194.314 254.873 194.59 255.494 195.141C256.115 195.686 256.438 196.438 256.461 197.399V201.776C256.461 202.649 256.572 203.344 256.795 203.859V204H255.09ZM252.392 202.761C252.901 202.761 253.385 202.629 253.842 202.365C254.299 202.102 254.63 201.759 254.835 201.337V199.386H253.561C251.568 199.386 250.572 199.969 250.572 201.135C250.572 201.645 250.742 202.043 251.082 202.33C251.422 202.617 251.858 202.761 252.392 202.761ZM261.914 199.597L260.895 200.66V204H259.269V190.5H260.895V198.665L261.765 197.619L264.727 194.49H266.704L263.004 198.463L267.135 204H265.228L261.914 199.597ZM272.403 204.176C271.114 204.176 270.065 203.754 269.257 202.91C268.448 202.061 268.044 200.927 268.044 199.509V199.21C268.044 198.267 268.223 197.426 268.58 196.688C268.943 195.943 269.447 195.363 270.092 194.947C270.742 194.525 271.445 194.314 272.201 194.314C273.438 194.314 274.398 194.722 275.084 195.536C275.77 196.351 276.112 197.517 276.112 199.034V199.711H269.67C269.693 200.648 269.966 201.407 270.487 201.987C271.015 202.562 271.683 202.849 272.491 202.849C273.065 202.849 273.552 202.731 273.95 202.497C274.349 202.263 274.697 201.952 274.996 201.565L275.989 202.339C275.192 203.563 273.997 204.176 272.403 204.176ZM272.201 195.65C271.545 195.65 270.994 195.891 270.549 196.371C270.104 196.846 269.828 197.514 269.723 198.375H274.486V198.252C274.439 197.426 274.217 196.787 273.818 196.336C273.42 195.879 272.881 195.65 272.201 195.65ZM288.838 204C288.744 203.812 288.668 203.479 288.609 202.998C287.854 203.783 286.951 204.176 285.902 204.176C284.965 204.176 284.194 203.912 283.591 203.385C282.993 202.852 282.694 202.178 282.694 201.363C282.694 200.373 283.069 199.605 283.819 199.061C284.575 198.51 285.636 198.234 287.001 198.234H288.583V197.487C288.583 196.919 288.413 196.468 288.073 196.134C287.733 195.794 287.232 195.624 286.57 195.624C285.99 195.624 285.504 195.771 285.111 196.063C284.719 196.356 284.522 196.711 284.522 197.127H282.888C282.888 196.652 283.055 196.195 283.389 195.756C283.729 195.311 284.186 194.959 284.76 194.701C285.34 194.443 285.976 194.314 286.667 194.314C287.763 194.314 288.621 194.59 289.242 195.141C289.863 195.686 290.186 196.438 290.209 197.399V201.776C290.209 202.649 290.32 203.344 290.543 203.859V204H288.838ZM286.14 202.761C286.649 202.761 287.133 202.629 287.59 202.365C288.047 202.102 288.378 201.759 288.583 201.337V199.386H287.309C285.316 199.386 284.32 199.969 284.32 201.135C284.32 201.645 284.49 202.043 284.83 202.33C285.17 202.617 285.606 202.761 286.14 202.761ZM299.489 204H297.863V190.5H299.489V204ZM301.919 199.157C301.919 198.226 302.101 197.388 302.464 196.644C302.833 195.899 303.343 195.325 303.993 194.921C304.649 194.517 305.396 194.314 306.234 194.314C307.529 194.314 308.575 194.763 309.372 195.659C310.175 196.556 310.576 197.748 310.576 199.236V199.351C310.576 200.276 310.397 201.108 310.04 201.847C309.688 202.579 309.182 203.15 308.52 203.561C307.863 203.971 307.107 204.176 306.252 204.176C304.963 204.176 303.917 203.728 303.114 202.831C302.317 201.935 301.919 200.748 301.919 199.271V199.157ZM303.554 199.351C303.554 200.405 303.797 201.252 304.283 201.891C304.775 202.529 305.432 202.849 306.252 202.849C307.078 202.849 307.734 202.526 308.221 201.882C308.707 201.231 308.95 200.323 308.95 199.157C308.95 198.114 308.701 197.271 308.203 196.626C307.711 195.976 307.055 195.65 306.234 195.65C305.432 195.65 304.784 195.97 304.292 196.608C303.8 197.247 303.554 198.161 303.554 199.351ZM312.435 199.157C312.435 198.226 312.616 197.388 312.979 196.644C313.349 195.899 313.858 195.325 314.509 194.921C315.165 194.517 315.912 194.314 316.75 194.314C318.045 194.314 319.091 194.763 319.888 195.659C320.69 196.556 321.092 197.748 321.092 199.236V199.351C321.092 200.276 320.913 201.108 320.556 201.847C320.204 202.579 319.697 203.15 319.035 203.561C318.379 203.971 317.623 204.176 316.768 204.176C315.479 204.176 314.433 203.728 313.63 202.831C312.833 201.935 312.435 200.748 312.435 199.271V199.157ZM314.069 199.351C314.069 200.405 314.312 201.252 314.799 201.891C315.291 202.529 315.947 202.849 316.768 202.849C317.594 202.849 318.25 202.526 318.736 201.882C319.223 201.231 319.466 200.323 319.466 199.157C319.466 198.114 319.217 197.271 318.719 196.626C318.227 195.976 317.57 195.65 316.75 195.65C315.947 195.65 315.3 195.97 314.808 196.608C314.315 197.247 314.069 198.161 314.069 199.351ZM326.035 199.597L325.016 200.66V204H323.39V190.5H325.016V198.665L325.886 197.619L328.848 194.49H330.825L327.125 198.463L331.256 204H329.349L326.035 199.597ZM343.34 204C343.246 203.812 343.17 203.479 343.111 202.998C342.355 203.783 341.453 204.176 340.404 204.176C339.467 204.176 338.696 203.912 338.093 203.385C337.495 202.852 337.196 202.178 337.196 201.363C337.196 200.373 337.571 199.605 338.321 199.061C339.077 198.51 340.138 198.234 341.503 198.234H343.085V197.487C343.085 196.919 342.915 196.468 342.575 196.134C342.235 195.794 341.734 195.624 341.072 195.624C340.492 195.624 340.006 195.771 339.613 196.063C339.221 196.356 339.024 196.711 339.024 197.127H337.39C337.39 196.652 337.557 196.195 337.891 195.756C338.23 195.311 338.688 194.959 339.262 194.701C339.842 194.443 340.478 194.314 341.169 194.314C342.265 194.314 343.123 194.59 343.744 195.141C344.365 195.686 344.688 196.438 344.711 197.399V201.776C344.711 202.649 344.822 203.344 345.045 203.859V204H343.34ZM340.642 202.761C341.151 202.761 341.635 202.629 342.092 202.365C342.549 202.102 342.88 201.759 343.085 201.337V199.386H341.811C339.818 199.386 338.822 199.969 338.822 201.135C338.822 201.645 338.992 202.043 339.332 202.33C339.672 202.617 340.108 202.761 340.642 202.761ZM349.716 192.188V194.49H351.491V195.747H349.716V201.645C349.716 202.025 349.795 202.312 349.953 202.506C350.111 202.693 350.381 202.787 350.762 202.787C350.949 202.787 351.207 202.752 351.535 202.682V204C351.107 204.117 350.691 204.176 350.287 204.176C349.561 204.176 349.013 203.956 348.644 203.517C348.274 203.077 348.09 202.453 348.09 201.645V195.747H346.358V194.49H348.09V192.188H349.716ZM363.979 191.203H365.676V200.265C365.676 201.489 365.307 202.447 364.568 203.139C363.836 203.83 362.857 204.176 361.633 204.176C360.361 204.176 359.371 203.851 358.662 203.2C357.953 202.55 357.599 201.639 357.599 200.467H359.286C359.286 201.199 359.485 201.771 359.884 202.181C360.288 202.591 360.871 202.796 361.633 202.796C362.33 202.796 362.893 202.576 363.32 202.137C363.754 201.697 363.974 201.082 363.979 200.291V191.203ZM372.491 204.176C371.202 204.176 370.153 203.754 369.345 202.91C368.536 202.061 368.132 200.927 368.132 199.509V199.21C368.132 198.267 368.311 197.426 368.668 196.688C369.031 195.943 369.535 195.363 370.18 194.947C370.83 194.525 371.533 194.314 372.289 194.314C373.525 194.314 374.486 194.722 375.172 195.536C375.857 196.351 376.2 197.517 376.2 199.034V199.711H369.758C369.781 200.648 370.054 201.407 370.575 201.987C371.103 202.562 371.771 202.849 372.579 202.849C373.153 202.849 373.64 202.731 374.038 202.497C374.437 202.263 374.785 201.952 375.084 201.565L376.077 202.339C375.28 203.563 374.085 204.176 372.491 204.176ZM372.289 195.65C371.633 195.65 371.082 195.891 370.637 196.371C370.191 196.846 369.916 197.514 369.811 198.375H374.574V198.252C374.527 197.426 374.305 196.787 373.906 196.336C373.508 195.879 372.969 195.65 372.289 195.65ZM380.546 192.188V194.49H382.321V195.747H380.546V201.645C380.546 202.025 380.625 202.312 380.783 202.506C380.941 202.693 381.211 202.787 381.592 202.787C381.779 202.787 382.037 202.752 382.365 202.682V204C381.938 204.117 381.521 204.176 381.117 204.176C380.391 204.176 379.843 203.956 379.474 203.517C379.104 203.077 378.92 202.453 378.92 201.645V195.747H377.188V194.49H378.92V192.188H380.546ZM392.512 199.351C392.512 200.798 392.181 201.964 391.519 202.849C390.856 203.733 389.96 204.176 388.829 204.176C387.675 204.176 386.767 203.81 386.104 203.077V207.656H384.479V194.49H385.964L386.043 195.545C386.705 194.725 387.625 194.314 388.803 194.314C389.945 194.314 390.848 194.745 391.51 195.606C392.178 196.468 392.512 197.666 392.512 199.201V199.351ZM390.886 199.166C390.886 198.094 390.657 197.247 390.2 196.626C389.743 196.005 389.116 195.694 388.319 195.694C387.335 195.694 386.597 196.131 386.104 197.004V201.548C386.591 202.415 387.335 202.849 388.337 202.849C389.116 202.849 389.734 202.541 390.191 201.926C390.654 201.305 390.886 200.385 390.886 199.166ZM400.707 204C400.613 203.812 400.537 203.479 400.479 202.998C399.723 203.783 398.82 204.176 397.771 204.176C396.834 204.176 396.063 203.912 395.46 203.385C394.862 202.852 394.563 202.178 394.563 201.363C394.563 200.373 394.938 199.605 395.688 199.061C396.444 198.51 397.505 198.234 398.87 198.234H400.452V197.487C400.452 196.919 400.282 196.468 399.942 196.134C399.603 195.794 399.102 195.624 398.439 195.624C397.859 195.624 397.373 195.771 396.98 196.063C396.588 196.356 396.392 196.711 396.392 197.127H394.757C394.757 196.652 394.924 196.195 395.258 195.756C395.598 195.311 396.055 194.959 396.629 194.701C397.209 194.443 397.845 194.314 398.536 194.314C399.632 194.314 400.49 194.59 401.111 195.141C401.732 195.686 402.055 196.438 402.078 197.399V201.776C402.078 202.649 402.189 203.344 402.412 203.859V204H400.707ZM398.009 202.761C398.519 202.761 399.002 202.629 399.459 202.365C399.916 202.102 400.247 201.759 400.452 201.337V199.386H399.178C397.186 199.386 396.189 199.969 396.189 201.135C396.189 201.645 396.359 202.043 396.699 202.33C397.039 202.617 397.476 202.761 398.009 202.761ZM408.691 202.849C409.271 202.849 409.778 202.673 410.212 202.321C410.646 201.97 410.886 201.53 410.933 201.003H412.471C412.441 201.548 412.254 202.066 411.908 202.559C411.562 203.051 411.1 203.443 410.52 203.736C409.945 204.029 409.336 204.176 408.691 204.176C407.396 204.176 406.365 203.745 405.598 202.884C404.836 202.017 404.455 200.833 404.455 199.333V199.061C404.455 198.135 404.625 197.312 404.965 196.591C405.305 195.87 405.791 195.311 406.424 194.912C407.062 194.514 407.815 194.314 408.683 194.314C409.749 194.314 410.634 194.634 411.337 195.272C412.046 195.911 412.424 196.74 412.471 197.76H410.933C410.886 197.145 410.651 196.641 410.229 196.248C409.813 195.85 409.298 195.65 408.683 195.65C407.856 195.65 407.215 195.949 406.758 196.547C406.307 197.139 406.081 197.997 406.081 199.122V199.43C406.081 200.525 406.307 201.369 406.758 201.961C407.209 202.553 407.854 202.849 408.691 202.849ZM417.203 199.597L416.184 200.66V204H414.558V190.5H416.184V198.665L417.054 197.619L420.016 194.49H421.993L418.293 198.463L422.424 204H420.517L417.203 199.597ZM248.898 220.939C248.74 222.293 248.239 223.339 247.396 224.077C246.558 224.81 245.441 225.176 244.047 225.176C242.535 225.176 241.322 224.634 240.408 223.55C239.5 222.466 239.046 221.016 239.046 219.199V217.969C239.046 216.779 239.257 215.733 239.679 214.831C240.106 213.929 240.71 213.237 241.489 212.757C242.269 212.271 243.171 212.027 244.196 212.027C245.556 212.027 246.646 212.408 247.466 213.17C248.286 213.926 248.764 214.975 248.898 216.316H247.202C247.056 215.297 246.736 214.559 246.244 214.102C245.758 213.645 245.075 213.416 244.196 213.416C243.118 213.416 242.271 213.814 241.656 214.611C241.047 215.408 240.742 216.542 240.742 218.013V219.252C240.742 220.641 241.032 221.745 241.612 222.565C242.192 223.386 243.004 223.796 244.047 223.796C244.984 223.796 245.702 223.585 246.2 223.163C246.704 222.735 247.038 221.994 247.202 220.939H248.898ZM250.774 220.157C250.774 219.226 250.956 218.388 251.319 217.644C251.688 216.899 252.198 216.325 252.849 215.921C253.505 215.517 254.252 215.314 255.09 215.314C256.385 215.314 257.431 215.763 258.228 216.659C259.03 217.556 259.432 218.748 259.432 220.236V220.351C259.432 221.276 259.253 222.108 258.896 222.847C258.544 223.579 258.037 224.15 257.375 224.561C256.719 224.971 255.963 225.176 255.107 225.176C253.818 225.176 252.772 224.728 251.97 223.831C251.173 222.935 250.774 221.748 250.774 220.271V220.157ZM252.409 220.351C252.409 221.405 252.652 222.252 253.139 222.891C253.631 223.529 254.287 223.849 255.107 223.849C255.934 223.849 256.59 223.526 257.076 222.882C257.562 222.231 257.806 221.323 257.806 220.157C257.806 219.114 257.557 218.271 257.059 217.626C256.566 216.976 255.91 216.65 255.09 216.65C254.287 216.65 253.64 216.97 253.147 217.608C252.655 218.247 252.409 219.161 252.409 220.351ZM263.25 215.49L263.294 216.545C263.991 215.725 264.932 215.314 266.115 215.314C267.445 215.314 268.351 215.824 268.831 216.844C269.147 216.387 269.558 216.018 270.062 215.736C270.571 215.455 271.172 215.314 271.863 215.314C273.949 215.314 275.01 216.419 275.045 218.628V225H273.419V218.725C273.419 218.045 273.264 217.538 272.953 217.204C272.643 216.864 272.121 216.694 271.389 216.694C270.785 216.694 270.284 216.876 269.886 217.239C269.487 217.597 269.256 218.08 269.191 218.689V225H267.557V218.769C267.557 217.386 266.88 216.694 265.526 216.694C264.46 216.694 263.73 217.148 263.338 218.057V225H261.712V215.49H263.25ZM285.789 220.351C285.789 221.798 285.458 222.964 284.796 223.849C284.134 224.733 283.237 225.176 282.106 225.176C280.952 225.176 280.044 224.81 279.382 224.077V228.656H277.756V215.49H279.241L279.32 216.545C279.982 215.725 280.902 215.314 282.08 215.314C283.223 215.314 284.125 215.745 284.787 216.606C285.455 217.468 285.789 218.666 285.789 220.201V220.351ZM284.163 220.166C284.163 219.094 283.935 218.247 283.478 217.626C283.021 217.005 282.394 216.694 281.597 216.694C280.612 216.694 279.874 217.131 279.382 218.004V222.548C279.868 223.415 280.612 223.849 281.614 223.849C282.394 223.849 283.012 223.541 283.469 222.926C283.932 222.305 284.163 221.385 284.163 220.166ZM287.683 220.157C287.683 219.226 287.864 218.388 288.228 217.644C288.597 216.899 289.106 216.325 289.757 215.921C290.413 215.517 291.16 215.314 291.998 215.314C293.293 215.314 294.339 215.763 295.136 216.659C295.938 217.556 296.34 218.748 296.34 220.236V220.351C296.34 221.276 296.161 222.108 295.804 222.847C295.452 223.579 294.945 224.15 294.283 224.561C293.627 224.971 292.871 225.176 292.016 225.176C290.727 225.176 289.681 224.728 288.878 223.831C288.081 222.935 287.683 221.748 287.683 220.271V220.157ZM289.317 220.351C289.317 221.405 289.561 222.252 290.047 222.891C290.539 223.529 291.195 223.849 292.016 223.849C292.842 223.849 293.498 223.526 293.984 222.882C294.471 222.231 294.714 221.323 294.714 220.157C294.714 219.114 294.465 218.271 293.967 217.626C293.475 216.976 292.818 216.65 291.998 216.65C291.195 216.65 290.548 216.97 290.056 217.608C289.563 218.247 289.317 219.161 289.317 220.351ZM304.166 222.478C304.166 222.038 303.999 221.698 303.665 221.458C303.337 221.212 302.76 221.001 301.934 220.825C301.113 220.649 300.46 220.438 299.974 220.192C299.493 219.946 299.136 219.653 298.901 219.313C298.673 218.974 298.559 218.569 298.559 218.101C298.559 217.321 298.887 216.662 299.543 216.123C300.205 215.584 301.049 215.314 302.074 215.314C303.152 215.314 304.025 215.593 304.693 216.149C305.367 216.706 305.704 217.418 305.704 218.285H304.069C304.069 217.84 303.879 217.456 303.498 217.134C303.123 216.812 302.648 216.65 302.074 216.65C301.482 216.65 301.02 216.779 300.686 217.037C300.352 217.295 300.185 217.632 300.185 218.048C300.185 218.44 300.34 218.736 300.65 218.936C300.961 219.135 301.521 219.325 302.329 219.507C303.144 219.688 303.803 219.905 304.307 220.157C304.811 220.409 305.183 220.714 305.423 221.071C305.669 221.423 305.792 221.854 305.792 222.363C305.792 223.213 305.452 223.896 304.772 224.411C304.093 224.921 303.211 225.176 302.127 225.176C301.365 225.176 300.691 225.041 300.105 224.771C299.52 224.502 299.06 224.127 298.726 223.646C298.397 223.16 298.233 222.636 298.233 222.073H299.859C299.889 222.618 300.105 223.052 300.51 223.374C300.92 223.69 301.459 223.849 302.127 223.849C302.742 223.849 303.234 223.726 303.604 223.479C303.979 223.228 304.166 222.894 304.166 222.478ZM312.106 225.176C310.817 225.176 309.769 224.754 308.96 223.91C308.151 223.061 307.747 221.927 307.747 220.509V220.21C307.747 219.267 307.926 218.426 308.283 217.688C308.646 216.943 309.15 216.363 309.795 215.947C310.445 215.525 311.148 215.314 311.904 215.314C313.141 215.314 314.102 215.722 314.787 216.536C315.473 217.351 315.815 218.517 315.815 220.034V220.711H309.373C309.396 221.648 309.669 222.407 310.19 222.987C310.718 223.562 311.386 223.849 312.194 223.849C312.769 223.849 313.255 223.731 313.653 223.497C314.052 223.263 314.4 222.952 314.699 222.565L315.692 223.339C314.896 224.563 313.7 225.176 312.106 225.176ZM311.904 216.65C311.248 216.65 310.697 216.891 310.252 217.371C309.807 217.846 309.531 218.514 309.426 219.375H314.189V219.252C314.143 218.426 313.92 217.787 313.521 217.336C313.123 216.879 312.584 216.65 311.904 216.65ZM319.774 221.388H318.307L318.192 212.203H319.897L319.774 221.388ZM318.131 224.183C318.131 223.919 318.21 223.699 318.368 223.523C318.532 223.342 318.772 223.251 319.089 223.251C319.405 223.251 319.646 223.342 319.81 223.523C319.974 223.699 320.056 223.919 320.056 224.183C320.056 224.446 319.974 224.666 319.81 224.842C319.646 225.012 319.405 225.097 319.089 225.097C318.772 225.097 318.532 225.012 318.368 224.842C318.21 224.666 318.131 224.446 318.131 224.183ZM329.626 225H327.938V212.203H329.626V225ZM334.921 213.188V215.49H336.696V216.747H334.921V222.645C334.921 223.025 335 223.312 335.158 223.506C335.316 223.693 335.586 223.787 335.967 223.787C336.154 223.787 336.412 223.752 336.74 223.682V225C336.312 225.117 335.896 225.176 335.492 225.176C334.766 225.176 334.218 224.956 333.849 224.517C333.479 224.077 333.295 223.453 333.295 222.645V216.747H331.563V215.49H333.295V213.188H334.921ZM349.105 222.478C349.105 222.038 348.938 221.698 348.604 221.458C348.276 221.212 347.699 221.001 346.873 220.825C346.053 220.649 345.399 220.438 344.913 220.192C344.433 219.946 344.075 219.653 343.841 219.313C343.612 218.974 343.498 218.569 343.498 218.101C343.498 217.321 343.826 216.662 344.482 216.123C345.145 215.584 345.988 215.314 347.014 215.314C348.092 215.314 348.965 215.593 349.633 216.149C350.307 216.706 350.644 217.418 350.644 218.285H349.009C349.009 217.84 348.818 217.456 348.438 217.134C348.062 216.812 347.588 216.65 347.014 216.65C346.422 216.65 345.959 216.779 345.625 217.037C345.291 217.295 345.124 217.632 345.124 218.048C345.124 218.44 345.279 218.736 345.59 218.936C345.9 219.135 346.46 219.325 347.269 219.507C348.083 219.688 348.742 219.905 349.246 220.157C349.75 220.409 350.122 220.714 350.362 221.071C350.608 221.423 350.731 221.854 350.731 222.363C350.731 223.213 350.392 223.896 349.712 224.411C349.032 224.921 348.15 225.176 347.066 225.176C346.305 225.176 345.631 225.041 345.045 224.771C344.459 224.502 343.999 224.127 343.665 223.646C343.337 223.16 343.173 222.636 343.173 222.073H344.799C344.828 222.618 345.045 223.052 345.449 223.374C345.859 223.69 346.398 223.849 347.066 223.849C347.682 223.849 348.174 223.726 348.543 223.479C348.918 223.228 349.105 222.894 349.105 222.478ZM354.866 225H353.24V215.49H354.866V225ZM353.108 212.968C353.108 212.704 353.188 212.481 353.346 212.3C353.51 212.118 353.75 212.027 354.066 212.027C354.383 212.027 354.623 212.118 354.787 212.3C354.951 212.481 355.033 212.704 355.033 212.968C355.033 213.231 354.951 213.451 354.787 213.627C354.623 213.803 354.383 213.891 354.066 213.891C353.75 213.891 353.51 213.803 353.346 213.627C353.188 213.451 353.108 213.231 353.108 212.968ZM359.256 215.49L359.3 216.545C359.997 215.725 360.938 215.314 362.121 215.314C363.451 215.314 364.356 215.824 364.837 216.844C365.153 216.387 365.563 216.018 366.067 215.736C366.577 215.455 367.178 215.314 367.869 215.314C369.955 215.314 371.016 216.419 371.051 218.628V225H369.425V218.725C369.425 218.045 369.27 217.538 368.959 217.204C368.648 216.864 368.127 216.694 367.395 216.694C366.791 216.694 366.29 216.876 365.892 217.239C365.493 217.597 365.262 218.08 365.197 218.689V225H363.562V218.769C363.562 217.386 362.886 216.694 361.532 216.694C360.466 216.694 359.736 217.148 359.344 218.057V225H357.718V215.49H359.256ZM381.795 220.351C381.795 221.798 381.464 222.964 380.802 223.849C380.14 224.733 379.243 225.176 378.112 225.176C376.958 225.176 376.05 224.81 375.388 224.077V228.656H373.762V215.49H375.247L375.326 216.545C375.988 215.725 376.908 215.314 378.086 215.314C379.229 215.314 380.131 215.745 380.793 216.606C381.461 217.468 381.795 218.666 381.795 220.201V220.351ZM380.169 220.166C380.169 219.094 379.94 218.247 379.483 217.626C379.026 217.005 378.399 216.694 377.603 216.694C376.618 216.694 375.88 217.131 375.388 218.004V222.548C375.874 223.415 376.618 223.849 377.62 223.849C378.399 223.849 379.018 223.541 379.475 222.926C379.938 222.305 380.169 221.385 380.169 220.166ZM385.886 225H384.26V211.5H385.886V225ZM390.513 225H388.887V215.49H390.513V225ZM388.755 212.968C388.755 212.704 388.834 212.481 388.992 212.3C389.156 212.118 389.396 212.027 389.713 212.027C390.029 212.027 390.27 212.118 390.434 212.3C390.598 212.481 390.68 212.704 390.68 212.968C390.68 213.231 390.598 213.451 390.434 213.627C390.27 213.803 390.029 213.891 389.713 213.891C389.396 213.891 389.156 213.803 388.992 213.627C388.834 213.451 388.755 213.231 388.755 212.968ZM393.918 225V216.747H392.415V215.49H393.918V214.682C393.918 213.621 394.22 212.795 394.823 212.203C395.433 211.611 396.291 211.315 397.398 211.315C398.055 211.315 398.884 211.494 399.886 211.852L399.613 213.223C398.881 212.93 398.184 212.783 397.521 212.783C396.824 212.783 396.32 212.941 396.01 213.258C395.705 213.568 395.553 214.037 395.553 214.664V215.49H397.495V216.747H395.553V225H393.918ZM400.694 225H399.06V215.49H400.694V225ZM407.536 225.176C406.247 225.176 405.198 224.754 404.39 223.91C403.581 223.061 403.177 221.927 403.177 220.509V220.21C403.177 219.267 403.355 218.426 403.713 217.688C404.076 216.943 404.58 216.363 405.225 215.947C405.875 215.525 406.578 215.314 407.334 215.314C408.57 215.314 409.531 215.722 410.217 216.536C410.902 217.351 411.245 218.517 411.245 220.034V220.711H404.803C404.826 221.648 405.099 222.407 405.62 222.987C406.147 223.562 406.815 223.849 407.624 223.849C408.198 223.849 408.685 223.731 409.083 223.497C409.481 223.263 409.83 222.952 410.129 222.565L411.122 223.339C410.325 224.563 409.13 225.176 407.536 225.176ZM407.334 216.65C406.678 216.65 406.127 216.891 405.682 217.371C405.236 217.846 404.961 218.514 404.855 219.375H409.619V219.252C409.572 218.426 409.35 217.787 408.951 217.336C408.553 216.879 408.014 216.65 407.334 216.65ZM418.922 222.478C418.922 222.038 418.755 221.698 418.421 221.458C418.093 221.212 417.516 221.001 416.689 220.825C415.869 220.649 415.216 220.438 414.729 220.192C414.249 219.946 413.892 219.653 413.657 219.313C413.429 218.974 413.314 218.569 413.314 218.101C413.314 217.321 413.643 216.662 414.299 216.123C414.961 215.584 415.805 215.314 416.83 215.314C417.908 215.314 418.781 215.593 419.449 216.149C420.123 216.706 420.46 217.418 420.46 218.285H418.825C418.825 217.84 418.635 217.456 418.254 217.134C417.879 216.812 417.404 216.65 416.83 216.65C416.238 216.65 415.775 216.779 415.441 217.037C415.107 217.295 414.94 217.632 414.94 218.048C414.94 218.44 415.096 218.736 415.406 218.936C415.717 219.135 416.276 219.325 417.085 219.507C417.899 219.688 418.559 219.905 419.062 220.157C419.566 220.409 419.938 220.714 420.179 221.071C420.425 221.423 420.548 221.854 420.548 222.363C420.548 223.213 420.208 223.896 419.528 224.411C418.849 224.921 417.967 225.176 416.883 225.176C416.121 225.176 415.447 225.041 414.861 224.771C414.275 224.502 413.815 224.127 413.481 223.646C413.153 223.16 412.989 222.636 412.989 222.073H414.615C414.645 222.618 414.861 223.052 415.266 223.374C415.676 223.69 416.215 223.849 416.883 223.849C417.498 223.849 417.99 223.726 418.359 223.479C418.734 223.228 418.922 222.894 418.922 222.478ZM436.895 212.203V220.904C436.889 222.111 436.508 223.099 435.752 223.866C435.002 224.634 433.982 225.064 432.693 225.158L432.245 225.176C430.845 225.176 429.729 224.798 428.896 224.042C428.064 223.286 427.643 222.246 427.631 220.922V212.203H429.301V220.869C429.301 221.795 429.556 222.516 430.065 223.031C430.575 223.541 431.302 223.796 432.245 223.796C433.2 223.796 433.93 223.541 434.434 223.031C434.943 222.521 435.198 221.804 435.198 220.878V212.203H436.895ZM441.618 225H439.931V212.203H441.618V225ZM238.835 241.166C238.835 239.707 239.181 238.535 239.872 237.65C240.563 236.76 241.469 236.314 242.588 236.314C243.701 236.314 244.583 236.695 245.233 237.457V232.5H246.859V246H245.365L245.286 244.98C244.636 245.777 243.73 246.176 242.57 246.176C241.469 246.176 240.569 245.725 239.872 244.822C239.181 243.92 238.835 242.742 238.835 241.289V241.166ZM240.461 241.351C240.461 242.429 240.684 243.272 241.129 243.882C241.574 244.491 242.189 244.796 242.975 244.796C244.006 244.796 244.759 244.333 245.233 243.407V239.039C244.747 238.143 244 237.694 242.992 237.694C242.195 237.694 241.574 238.002 241.129 238.617C240.684 239.232 240.461 240.144 240.461 241.351ZM253.587 246.176C252.298 246.176 251.249 245.754 250.44 244.91C249.632 244.061 249.228 242.927 249.228 241.509V241.21C249.228 240.267 249.406 239.426 249.764 238.688C250.127 237.943 250.631 237.363 251.275 236.947C251.926 236.525 252.629 236.314 253.385 236.314C254.621 236.314 255.582 236.722 256.268 237.536C256.953 238.351 257.296 239.517 257.296 241.034V241.711H250.854C250.877 242.648 251.149 243.407 251.671 243.987C252.198 244.562 252.866 244.849 253.675 244.849C254.249 244.849 254.735 244.731 255.134 244.497C255.532 244.263 255.881 243.952 256.18 243.565L257.173 244.339C256.376 245.563 255.181 246.176 253.587 246.176ZM253.385 237.65C252.729 237.65 252.178 237.891 251.732 238.371C251.287 238.846 251.012 239.514 250.906 240.375H255.67V240.252C255.623 239.426 255.4 238.787 255.002 238.336C254.604 237.879 254.064 237.65 253.385 237.65ZM262.45 243.794L264.806 236.49H266.467L263.057 246H261.817L258.372 236.49H260.033L262.45 243.794ZM272.104 246.176C270.815 246.176 269.767 245.754 268.958 244.91C268.149 244.061 267.745 242.927 267.745 241.509V241.21C267.745 240.267 267.924 239.426 268.281 238.688C268.645 237.943 269.148 237.363 269.793 236.947C270.443 236.525 271.146 236.314 271.902 236.314C273.139 236.314 274.1 236.722 274.785 237.536C275.471 238.351 275.813 239.517 275.813 241.034V241.711H269.371C269.395 242.648 269.667 243.407 270.188 243.987C270.716 244.562 271.384 244.849 272.192 244.849C272.767 244.849 273.253 244.731 273.651 244.497C274.05 244.263 274.398 243.952 274.697 243.565L275.69 244.339C274.894 245.563 273.698 246.176 272.104 246.176ZM271.902 237.65C271.246 237.65 270.695 237.891 270.25 238.371C269.805 238.846 269.529 239.514 269.424 240.375H274.188V240.252C274.141 239.426 273.918 238.787 273.52 238.336C273.121 237.879 272.582 237.65 271.902 237.65ZM279.72 246H278.094V232.5H279.72V246ZM282.149 241.157C282.149 240.226 282.331 239.388 282.694 238.644C283.063 237.899 283.573 237.325 284.224 236.921C284.88 236.517 285.627 236.314 286.465 236.314C287.76 236.314 288.806 236.763 289.603 237.659C290.405 238.556 290.807 239.748 290.807 241.236V241.351C290.807 242.276 290.628 243.108 290.271 243.847C289.919 244.579 289.412 245.15 288.75 245.561C288.094 245.971 287.338 246.176 286.482 246.176C285.193 246.176 284.147 245.728 283.345 244.831C282.548 243.935 282.149 242.748 282.149 241.271V241.157ZM283.784 241.351C283.784 242.405 284.027 243.252 284.514 243.891C285.006 244.529 285.662 244.849 286.482 244.849C287.309 244.849 287.965 244.526 288.451 243.882C288.938 243.231 289.181 242.323 289.181 241.157C289.181 240.114 288.932 239.271 288.434 238.626C287.941 237.976 287.285 237.65 286.465 237.65C285.662 237.65 285.015 237.97 284.522 238.608C284.03 239.247 283.784 240.161 283.784 241.351ZM301.129 241.351C301.129 242.798 300.798 243.964 300.136 244.849C299.474 245.733 298.577 246.176 297.446 246.176C296.292 246.176 295.384 245.81 294.722 245.077V249.656H293.096V236.49H294.581L294.66 237.545C295.322 236.725 296.242 236.314 297.42 236.314C298.562 236.314 299.465 236.745 300.127 237.606C300.795 238.468 301.129 239.666 301.129 241.201V241.351ZM299.503 241.166C299.503 240.094 299.274 239.247 298.817 238.626C298.36 238.005 297.733 237.694 296.937 237.694C295.952 237.694 295.214 238.131 294.722 239.004V243.548C295.208 244.415 295.952 244.849 296.954 244.849C297.733 244.849 298.352 244.541 298.809 243.926C299.271 243.305 299.503 242.385 299.503 241.166ZM304.982 236.49L305.026 237.545C305.724 236.725 306.664 236.314 307.848 236.314C309.178 236.314 310.083 236.824 310.563 237.844C310.88 237.387 311.29 237.018 311.794 236.736C312.304 236.455 312.904 236.314 313.596 236.314C315.682 236.314 316.742 237.419 316.777 239.628V246H315.151V239.725C315.151 239.045 314.996 238.538 314.686 238.204C314.375 237.864 313.854 237.694 313.121 237.694C312.518 237.694 312.017 237.876 311.618 238.239C311.22 238.597 310.988 239.08 310.924 239.689V246H309.289V239.769C309.289 238.386 308.612 237.694 307.259 237.694C306.192 237.694 305.463 238.148 305.07 239.057V246H303.444V236.49H304.982ZM323.435 246.176C322.146 246.176 321.097 245.754 320.288 244.91C319.479 244.061 319.075 242.927 319.075 241.509V241.21C319.075 240.267 319.254 239.426 319.611 238.688C319.975 237.943 320.479 237.363 321.123 236.947C321.773 236.525 322.477 236.314 323.232 236.314C324.469 236.314 325.43 236.722 326.115 237.536C326.801 238.351 327.144 239.517 327.144 241.034V241.711H320.701C320.725 242.648 320.997 243.407 321.519 243.987C322.046 244.562 322.714 244.849 323.522 244.849C324.097 244.849 324.583 244.731 324.981 244.497C325.38 244.263 325.729 243.952 326.027 243.565L327.021 244.339C326.224 245.563 325.028 246.176 323.435 246.176ZM323.232 237.65C322.576 237.65 322.025 237.891 321.58 238.371C321.135 238.846 320.859 239.514 320.754 240.375H325.518V240.252C325.471 239.426 325.248 238.787 324.85 238.336C324.451 237.879 323.912 237.65 323.232 237.65ZM330.821 236.49L330.874 237.686C331.601 236.771 332.55 236.314 333.722 236.314C335.731 236.314 336.745 237.448 336.763 239.716V246H335.137V239.707C335.131 239.021 334.973 238.515 334.662 238.187C334.357 237.858 333.88 237.694 333.229 237.694C332.702 237.694 332.239 237.835 331.841 238.116C331.442 238.397 331.132 238.767 330.909 239.224V246H329.283V236.49H330.821ZM341.671 234.188V236.49H343.446V237.747H341.671V243.645C341.671 244.025 341.75 244.312 341.908 244.506C342.066 244.693 342.336 244.787 342.717 244.787C342.904 244.787 343.162 244.752 343.49 244.682V246C343.062 246.117 342.646 246.176 342.242 246.176C341.516 246.176 340.968 245.956 340.599 245.517C340.229 245.077 340.045 244.453 340.045 243.645V237.747H338.313V236.49H340.045V234.188H341.671ZM349.888 241.157C349.888 240.226 350.069 239.388 350.433 238.644C350.802 237.899 351.312 237.325 351.962 236.921C352.618 236.517 353.365 236.314 354.203 236.314C355.498 236.314 356.544 236.763 357.341 237.659C358.144 238.556 358.545 239.748 358.545 241.236V241.351C358.545 242.276 358.366 243.108 358.009 243.847C357.657 244.579 357.15 245.15 356.488 245.561C355.832 245.971 355.076 246.176 354.221 246.176C352.932 246.176 351.886 245.728 351.083 244.831C350.286 243.935 349.888 242.748 349.888 241.271V241.157ZM351.522 241.351C351.522 242.405 351.766 243.252 352.252 243.891C352.744 244.529 353.4 244.849 354.221 244.849C355.047 244.849 355.703 244.526 356.189 243.882C356.676 243.231 356.919 242.323 356.919 241.157C356.919 240.114 356.67 239.271 356.172 238.626C355.68 237.976 355.023 237.65 354.203 237.65C353.4 237.65 352.753 237.97 352.261 238.608C351.769 239.247 351.522 240.161 351.522 241.351ZM362.372 236.49L362.425 237.686C363.151 236.771 364.101 236.314 365.272 236.314C367.282 236.314 368.296 237.448 368.313 239.716V246H366.688V239.707C366.682 239.021 366.523 238.515 366.213 238.187C365.908 237.858 365.431 237.694 364.78 237.694C364.253 237.694 363.79 237.835 363.392 238.116C362.993 238.397 362.683 238.767 362.46 239.224V246H360.834V236.49H362.372ZM383.052 242.66H377.69L376.486 246H374.746L379.633 233.203H381.109L386.005 246H384.273L383.052 242.66ZM378.2 241.271H382.551L380.371 235.286L378.2 241.271ZM389.261 236.49L389.313 237.686C390.04 236.771 390.989 236.314 392.161 236.314C394.171 236.314 395.185 237.448 395.202 239.716V246H393.576V239.707C393.57 239.021 393.412 238.515 393.102 238.187C392.797 237.858 392.319 237.694 391.669 237.694C391.142 237.694 390.679 237.835 390.28 238.116C389.882 238.397 389.571 238.767 389.349 239.224V246H387.723V236.49H389.261ZM397.509 241.166C397.509 239.707 397.854 238.535 398.546 237.65C399.237 236.76 400.143 236.314 401.262 236.314C402.375 236.314 403.257 236.695 403.907 237.457V232.5H405.533V246H404.039L403.96 244.98C403.31 245.777 402.404 246.176 401.244 246.176C400.143 246.176 399.243 245.725 398.546 244.822C397.854 243.92 397.509 242.742 397.509 241.289V241.166ZM399.135 241.351C399.135 242.429 399.357 243.272 399.803 243.882C400.248 244.491 400.863 244.796 401.648 244.796C402.68 244.796 403.433 244.333 403.907 243.407V239.039C403.421 238.143 402.674 237.694 401.666 237.694C400.869 237.694 400.248 238.002 399.803 238.617C399.357 239.232 399.135 240.144 399.135 241.351ZM412.911 237.949C412.665 237.908 412.398 237.888 412.111 237.888C411.045 237.888 410.321 238.342 409.94 239.25V246H408.314V236.49H409.896L409.923 237.589C410.456 236.739 411.212 236.314 412.19 236.314C412.507 236.314 412.747 236.355 412.911 236.438V237.949ZM414.058 241.157C414.058 240.226 414.239 239.388 414.603 238.644C414.972 237.899 415.481 237.325 416.132 236.921C416.788 236.517 417.535 236.314 418.373 236.314C419.668 236.314 420.714 236.763 421.511 237.659C422.313 238.556 422.715 239.748 422.715 241.236V241.351C422.715 242.276 422.536 243.108 422.179 243.847C421.827 244.579 421.32 245.15 420.658 245.561C420.002 245.971 419.246 246.176 418.391 246.176C417.102 246.176 416.056 245.728 415.253 244.831C414.456 243.935 414.058 242.748 414.058 241.271V241.157ZM415.692 241.351C415.692 242.405 415.936 243.252 416.422 243.891C416.914 244.529 417.57 244.849 418.391 244.849C419.217 244.849 419.873 244.526 420.359 243.882C420.846 243.231 421.089 242.323 421.089 241.157C421.089 240.114 420.84 239.271 420.342 238.626C419.85 237.976 419.193 237.65 418.373 237.65C417.57 237.65 416.923 237.97 416.431 238.608C415.938 239.247 415.692 240.161 415.692 241.351ZM426.771 246H425.145V236.49H426.771V246ZM425.013 233.968C425.013 233.704 425.092 233.481 425.25 233.3C425.414 233.118 425.654 233.027 425.971 233.027C426.287 233.027 426.527 233.118 426.691 233.3C426.855 233.481 426.938 233.704 426.938 233.968C426.938 234.231 426.855 234.451 426.691 234.627C426.527 234.803 426.287 234.891 425.971 234.891C425.654 234.891 425.414 234.803 425.25 234.627C425.092 234.451 425.013 234.231 425.013 233.968ZM429.235 241.166C429.235 239.707 429.581 238.535 430.272 237.65C430.964 236.76 431.869 236.314 432.988 236.314C434.102 236.314 434.983 236.695 435.634 237.457V232.5H437.26V246H435.766L435.687 244.98C435.036 245.777 434.131 246.176 432.971 246.176C431.869 246.176 430.97 245.725 430.272 244.822C429.581 243.92 429.235 242.742 429.235 241.289V241.166ZM430.861 241.351C430.861 242.429 431.084 243.272 431.529 243.882C431.975 244.491 432.59 244.796 433.375 244.796C434.406 244.796 435.159 244.333 435.634 243.407V239.039C435.147 238.143 434.4 237.694 433.393 237.694C432.596 237.694 431.975 238.002 431.529 238.617C431.084 239.232 430.861 240.144 430.861 241.351ZM440.076 245.147C440.076 244.866 440.158 244.632 440.322 244.444C440.492 244.257 440.744 244.163 441.078 244.163C441.412 244.163 441.664 244.257 441.834 244.444C442.01 244.632 442.098 244.866 442.098 245.147C442.098 245.417 442.01 245.643 441.834 245.824C441.664 246.006 441.412 246.097 441.078 246.097C440.744 246.097 440.492 246.006 440.322 245.824C440.158 245.643 440.076 245.417 440.076 245.147Z" fill="black"/>
</g>
<circle cx="182" cy="180" r="32" fill="#70D68A"/>
</g>
</g>
<defs>
<filter id="filter0_d_142_317" x="108" y="70" width="396" height="676" filterUnits="userSpaceOnUse" color-interpolation-filters="sRGB">
<feFlood flood-opacity="0" result="BackgroundImageFix"/>
<feColorMatrix in="SourceAlpha" type="matrix" values="0 0 0 0 0 0 0 0 0 0 0 0 0 0 0 0 0 0 127 0" result="hardAlpha"/>
<feMorphology radius="2" operator="dilate" in="SourceAlpha" result="effect1_dropShadow_142_317"/>
<feOffset/>
<feGaussianBlur stdDeviation="8"/>
<feColorMatrix type="matrix" values="0 0 0 0 0.235294 0 0 0 0 0.25098 0 0 0 0 0.262745 0 0 0 0.15 0"/>
<feBlend mode="normal" in2="BackgroundImageFix" result="effect1_dropShadow_142_317"/>
<feBlend mode="normal" in="SourceGraphic" in2="effect1_dropShadow_142_317" result="shape"/>
</filter>
<filter id="filter1_dd_142_317" x="222" y="172" width="244" height="95" filterUnits="userSpaceOnUse" color-interpolation-filters="sRGB">
<feFlood flood-opacity="0" result="BackgroundImageFix"/>
<feColorMatrix in="SourceAlpha" type="matrix" values="0 0 0 0 0 0 0 0 0 0 0 0 0 0 0 0 0 0 127 0" result="hardAlpha"/>
<feMorphology radius="1" operator="dilate" in="SourceAlpha" result="effect1_dropShadow_142_317"/>
<feOffset dy="1"/>
<feGaussianBlur stdDeviation="1.5"/>
<feColorMatrix type="matrix" values="0 0 0 0 0.235294 0 0 0 0 0.25098 0 0 0 0 0.262745 0 0 0 0.15 0"/>
<feBlend mode="normal" in2="BackgroundImageFix" result="effect1_dropShadow_142_317"/>
<feColorMatrix in="SourceAlpha" type="matrix" values="0 0 0 0 0 0 0 0 0 0 0 0 0 0 0 0 0 0 127 0" result="hardAlpha"/>
<feOffset dy="1"/>
<feGaussianBlur stdDeviation="1"/>
<feColorMatrix type="matrix" values="0 0 0 0 0.235294 0 0 0 0 0.25098 0 0 0 0 0.262745 0 0 0 0.3 0"/>
<feBlend mode="normal" in2="effect1_dropShadow_142_317" result="effect2_dropShadow_142_317"/>
<feBlend mode="normal" in="SourceGraphic" in2="effect2_dropShadow_142_317" result="shape"/>
</filter>
<clipPath id="clip0_142_317">
<rect width="612" height="400" fill="white"/>
</clipPath>
</defs>
</svg>
