<svg width="612" height="400" viewBox="0 0 612 400" fill="none" xmlns="http://www.w3.org/2000/svg">
<rect width="612" height="400" fill="#F2F2F2"/>
<g clip-path="url(#clip0_139_147)">
<rect width="612" height="400" fill="#F7F8FB"/>
<g filter="url(#filter0_d_139_147)">
<rect x="126" y="88" width="360" height="640" rx="16" fill="white"/>
<rect width="360" height="36" transform="translate(126 88)" fill="#073042"/>
<rect x="410" y="99" width="14" height="14" fill="white"/>
<rect x="432" y="99" width="14" height="14" rx="7" fill="white"/>
<path fill-rule="evenodd" clip-rule="evenodd" d="M462 113L470 99H454L462 113Z" fill="white"/>
<path d="M167.609 174H164.971V164.799H154.936V174H152.311V154.094H154.936V162.652H164.971V154.094H167.609V174ZM178.264 174.273C176.258 174.273 174.627 173.617 173.369 172.305C172.111 170.983 171.482 169.219 171.482 167.014V166.549C171.482 165.081 171.76 163.773 172.316 162.625C172.882 161.467 173.665 160.565 174.668 159.918C175.68 159.262 176.773 158.934 177.949 158.934C179.872 158.934 181.367 159.567 182.434 160.834C183.5 162.101 184.033 163.915 184.033 166.275V167.328H174.012C174.048 168.786 174.472 169.967 175.283 170.869C176.104 171.762 177.143 172.209 178.4 172.209C179.294 172.209 180.05 172.027 180.67 171.662C181.29 171.298 181.832 170.814 182.297 170.213L183.842 171.416C182.602 173.321 180.743 174.273 178.264 174.273ZM177.949 161.012C176.928 161.012 176.072 161.385 175.379 162.133C174.686 162.871 174.258 163.91 174.094 165.25H181.504V165.059C181.431 163.773 181.085 162.78 180.465 162.078C179.845 161.367 179.007 161.012 177.949 161.012ZM189.971 174H187.441V153H189.971V174ZM197.029 174H194.5V153H197.029V174ZM200.67 166.467C200.67 165.018 200.952 163.714 201.518 162.557C202.092 161.399 202.885 160.506 203.896 159.877C204.917 159.248 206.079 158.934 207.383 158.934C209.397 158.934 211.024 159.631 212.264 161.025C213.512 162.42 214.137 164.275 214.137 166.59V166.768C214.137 168.208 213.859 169.502 213.303 170.65C212.756 171.79 211.967 172.678 210.938 173.316C209.917 173.954 208.741 174.273 207.41 174.273C205.405 174.273 203.778 173.576 202.529 172.182C201.29 170.787 200.67 168.941 200.67 166.645V166.467ZM203.213 166.768C203.213 168.408 203.591 169.725 204.348 170.719C205.113 171.712 206.134 172.209 207.41 172.209C208.695 172.209 209.716 171.708 210.473 170.705C211.229 169.693 211.607 168.281 211.607 166.467C211.607 164.844 211.22 163.532 210.445 162.529C209.68 161.518 208.659 161.012 207.383 161.012C206.134 161.012 205.127 161.508 204.361 162.502C203.596 163.495 203.213 164.917 203.213 166.768ZM236.143 168.805H227.803L225.93 174H223.223L230.824 154.094H233.121L240.736 174H238.043L236.143 168.805ZM228.596 166.645H235.363L231.973 157.334L228.596 166.645ZM245.662 159.207L245.744 161.066C246.874 159.645 248.351 158.934 250.174 158.934C253.3 158.934 254.877 160.697 254.904 164.225V174H252.375V164.211C252.366 163.145 252.12 162.356 251.637 161.846C251.163 161.335 250.42 161.08 249.408 161.08C248.588 161.08 247.868 161.299 247.248 161.736C246.628 162.174 246.145 162.748 245.799 163.459V174H243.27V159.207H245.662ZM258.354 166.48C258.354 164.211 258.891 162.388 259.967 161.012C261.042 159.626 262.451 158.934 264.191 158.934C265.923 158.934 267.295 159.526 268.307 160.711V153H270.836V174H268.512L268.389 172.414C267.377 173.654 265.969 174.273 264.164 174.273C262.451 174.273 261.051 173.572 259.967 172.168C258.891 170.764 258.354 168.932 258.354 166.672V166.48ZM260.883 166.768C260.883 168.445 261.229 169.757 261.922 170.705C262.615 171.653 263.572 172.127 264.793 172.127C266.397 172.127 267.568 171.407 268.307 169.967V163.172C267.55 161.777 266.388 161.08 264.82 161.08C263.581 161.08 262.615 161.559 261.922 162.516C261.229 163.473 260.883 164.89 260.883 166.768ZM282.174 161.477C281.791 161.413 281.376 161.381 280.93 161.381C279.271 161.381 278.145 162.087 277.553 163.5V174H275.023V159.207H277.484L277.525 160.916C278.355 159.594 279.531 158.934 281.053 158.934C281.545 158.934 281.919 158.997 282.174 159.125V161.477ZM283.818 166.467C283.818 165.018 284.101 163.714 284.666 162.557C285.24 161.399 286.033 160.506 287.045 159.877C288.066 159.248 289.228 158.934 290.531 158.934C292.546 158.934 294.173 159.631 295.412 161.025C296.661 162.42 297.285 164.275 297.285 166.59V166.768C297.285 168.208 297.007 169.502 296.451 170.65C295.904 171.79 295.116 172.678 294.086 173.316C293.065 173.954 291.889 174.273 290.559 174.273C288.553 174.273 286.926 173.576 285.678 172.182C284.438 170.787 283.818 168.941 283.818 166.645V166.467ZM286.361 166.768C286.361 168.408 286.74 169.725 287.496 170.719C288.262 171.712 289.283 172.209 290.559 172.209C291.844 172.209 292.865 171.708 293.621 170.705C294.378 169.693 294.756 168.281 294.756 166.467C294.756 164.844 294.368 163.532 293.594 162.529C292.828 161.518 291.807 161.012 290.531 161.012C289.283 161.012 288.275 161.508 287.51 162.502C286.744 163.495 286.361 164.917 286.361 166.768ZM303.455 174H300.926V159.207H303.455V174ZM300.721 155.283C300.721 154.873 300.844 154.527 301.09 154.244C301.345 153.962 301.719 153.82 302.211 153.82C302.703 153.82 303.077 153.962 303.332 154.244C303.587 154.527 303.715 154.873 303.715 155.283C303.715 155.693 303.587 156.035 303.332 156.309C303.077 156.582 302.703 156.719 302.211 156.719C301.719 156.719 301.345 156.582 301.09 156.309C300.844 156.035 300.721 155.693 300.721 155.283ZM307.15 166.48C307.15 164.211 307.688 162.388 308.764 161.012C309.839 159.626 311.247 158.934 312.988 158.934C314.72 158.934 316.092 159.526 317.104 160.711V153H319.633V174H317.309L317.186 172.414C316.174 173.654 314.766 174.273 312.961 174.273C311.247 174.273 309.848 173.572 308.764 172.168C307.688 170.764 307.15 168.932 307.15 166.672V166.48ZM309.68 166.768C309.68 168.445 310.026 169.757 310.719 170.705C311.411 171.653 312.368 172.127 313.59 172.127C315.194 172.127 316.365 171.407 317.104 169.967V163.172C316.347 161.777 315.185 161.08 313.617 161.08C312.378 161.08 311.411 161.559 310.719 162.516C310.026 163.473 309.68 164.89 309.68 166.768ZM326.65 168.381H324.367L324.189 154.094H326.842L326.65 168.381ZM324.094 172.729C324.094 172.318 324.217 171.977 324.463 171.703C324.718 171.421 325.092 171.279 325.584 171.279C326.076 171.279 326.45 171.421 326.705 171.703C326.96 171.977 327.088 172.318 327.088 172.729C327.088 173.139 326.96 173.48 326.705 173.754C326.45 174.018 326.076 174.15 325.584 174.15C325.092 174.15 324.718 174.018 324.463 173.754C324.217 173.48 324.094 173.139 324.094 172.729Z" fill="black"/>
</g>
</g>
<defs>
<filter id="filter0_d_139_147" x="108" y="70" width="396" height="676" filterUnits="userSpaceOnUse" color-interpolation-filters="sRGB">
<feFlood flood-opacity="0" result="BackgroundImageFix"/>
<feColorMatrix in="SourceAlpha" type="matrix" values="0 0 0 0 0 0 0 0 0 0 0 0 0 0 0 0 0 0 127 0" result="hardAlpha"/>
<feMorphology radius="2" operator="dilate" in="SourceAlpha" result="effect1_dropShadow_139_147"/>
<feOffset/>
<feGaussianBlur stdDeviation="8"/>
<feColorMatrix type="matrix" values="0 0 0 0 0.235294 0 0 0 0 0.25098 0 0 0 0 0.262745 0 0 0 0.15 0"/>
<feBlend mode="normal" in2="BackgroundImageFix" result="effect1_dropShadow_139_147"/>
<feBlend mode="normal" in="SourceGraphic" in2="effect1_dropShadow_139_147" result="shape"/>
</filter>
<clipPath id="clip0_139_147">
<rect width="612" height="400" fill="white"/>
</clipPath>
</defs>
</svg>
