<svg width="612" height="400" viewBox="0 0 612 400" fill="none" xmlns="http://www.w3.org/2000/svg">
<g clip-path="url(#clip0_142_320)">
<rect width="612" height="400" fill="#F7F8FB"/>
<g filter="url(#filter0_d_142_320)">
<rect x="126" y="88" width="360" height="640" rx="16" fill="white"/>
<rect width="360" height="36" transform="translate(126 88)" fill="#073042"/>
<rect x="410" y="99" width="14" height="14" fill="white"/>
<rect x="432" y="99" width="14" height="14" rx="7" fill="white"/>
<path fill-rule="evenodd" clip-rule="evenodd" d="M462 113L470 99H454L462 113Z" fill="white"/>
<path d="M235.316 163.251V165H228.892V163.251H235.316ZM229.507 152.203V165H227.301V152.203H229.507ZM241.503 165.176C240.8 165.176 240.164 165.062 239.596 164.833C239.033 164.599 238.553 164.273 238.154 163.857C237.762 163.441 237.46 162.952 237.249 162.39C237.038 161.827 236.933 161.221 236.933 160.57V160.219C236.933 159.475 237.041 158.801 237.258 158.197C237.475 157.594 237.776 157.078 238.163 156.65C238.55 156.217 239.007 155.886 239.534 155.657C240.062 155.429 240.633 155.314 241.248 155.314C241.928 155.314 242.522 155.429 243.032 155.657C243.542 155.886 243.964 156.208 244.298 156.624C244.638 157.034 244.89 157.523 245.054 158.092C245.224 158.66 245.309 159.287 245.309 159.973V160.878H237.961V159.357H243.217V159.19C243.205 158.81 243.129 158.452 242.988 158.118C242.854 157.784 242.646 157.515 242.364 157.31C242.083 157.104 241.708 157.002 241.239 157.002C240.888 157.002 240.574 157.078 240.299 157.23C240.029 157.377 239.804 157.591 239.622 157.872C239.44 158.153 239.3 158.493 239.2 158.892C239.106 159.284 239.06 159.727 239.06 160.219V160.57C239.06 160.986 239.115 161.373 239.227 161.73C239.344 162.082 239.514 162.39 239.736 162.653C239.959 162.917 240.229 163.125 240.545 163.277C240.861 163.424 241.222 163.497 241.626 163.497C242.136 163.497 242.59 163.395 242.988 163.189C243.387 162.984 243.732 162.694 244.025 162.319L245.142 163.4C244.937 163.699 244.67 163.986 244.342 164.262C244.014 164.531 243.612 164.751 243.138 164.921C242.669 165.091 242.124 165.176 241.503 165.176ZM249.078 155.49L250.889 158.646L252.734 155.49H255.063L252.181 160.157L255.178 165H252.849L250.915 161.713L248.981 165H246.644L249.632 160.157L246.758 155.49H249.078ZM259.281 155.49V165H257.154V155.49H259.281ZM257.014 152.994C257.014 152.672 257.119 152.405 257.33 152.194C257.547 151.978 257.846 151.869 258.227 151.869C258.602 151.869 258.897 151.978 259.114 152.194C259.331 152.405 259.439 152.672 259.439 152.994C259.439 153.311 259.331 153.574 259.114 153.785C258.897 153.996 258.602 154.102 258.227 154.102C257.846 154.102 257.547 153.996 257.33 153.785C257.119 153.574 257.014 153.311 257.014 152.994Z" fill="#018786"/>
<g filter="url(#filter1_dd_142_320)">
<rect x="226" y="175" width="236" height="66" rx="4" fill="white"/>
<path d="M248.327 192.592H244.214V204H242.535V192.592H238.431V191.203H248.327V192.592ZM255.09 204C254.996 203.812 254.92 203.479 254.861 202.998C254.105 203.783 253.203 204.176 252.154 204.176C251.217 204.176 250.446 203.912 249.843 203.385C249.245 202.852 248.946 202.178 248.946 201.363C248.946 200.373 249.321 199.605 250.071 199.061C250.827 198.51 251.888 198.234 253.253 198.234H254.835V197.487C254.835 196.919 254.665 196.468 254.325 196.134C253.985 195.794 253.484 195.624 252.822 195.624C252.242 195.624 251.756 195.771 251.363 196.063C250.971 196.356 250.774 196.711 250.774 197.127H249.14C249.14 196.652 249.307 196.195 249.641 195.756C249.98 195.311 250.438 194.959 251.012 194.701C251.592 194.443 252.228 194.314 252.919 194.314C254.015 194.314 254.873 194.59 255.494 195.141C256.115 195.686 256.438 196.438 256.461 197.399V201.776C256.461 202.649 256.572 203.344 256.795 203.859V204H255.09ZM252.392 202.761C252.901 202.761 253.385 202.629 253.842 202.365C254.299 202.102 254.63 201.759 254.835 201.337V199.386H253.561C251.568 199.386 250.572 199.969 250.572 201.135C250.572 201.645 250.742 202.043 251.082 202.33C251.422 202.617 251.858 202.761 252.392 202.761ZM261.914 199.597L260.895 200.66V204H259.269V190.5H260.895V198.665L261.765 197.619L264.727 194.49H266.704L263.004 198.463L267.135 204H265.228L261.914 199.597ZM272.403 204.176C271.114 204.176 270.065 203.754 269.257 202.91C268.448 202.061 268.044 200.927 268.044 199.509V199.21C268.044 198.267 268.223 197.426 268.58 196.688C268.943 195.943 269.447 195.363 270.092 194.947C270.742 194.525 271.445 194.314 272.201 194.314C273.438 194.314 274.398 194.722 275.084 195.536C275.77 196.351 276.112 197.517 276.112 199.034V199.711H269.67C269.693 200.648 269.966 201.407 270.487 201.987C271.015 202.562 271.683 202.849 272.491 202.849C273.065 202.849 273.552 202.731 273.95 202.497C274.349 202.263 274.697 201.952 274.996 201.565L275.989 202.339C275.192 203.563 273.997 204.176 272.403 204.176ZM272.201 195.65C271.545 195.65 270.994 195.891 270.549 196.371C270.104 196.846 269.828 197.514 269.723 198.375H274.486V198.252C274.439 197.426 274.217 196.787 273.818 196.336C273.42 195.879 272.881 195.65 272.201 195.65ZM288.838 204C288.744 203.812 288.668 203.479 288.609 202.998C287.854 203.783 286.951 204.176 285.902 204.176C284.965 204.176 284.194 203.912 283.591 203.385C282.993 202.852 282.694 202.178 282.694 201.363C282.694 200.373 283.069 199.605 283.819 199.061C284.575 198.51 285.636 198.234 287.001 198.234H288.583V197.487C288.583 196.919 288.413 196.468 288.073 196.134C287.733 195.794 287.232 195.624 286.57 195.624C285.99 195.624 285.504 195.771 285.111 196.063C284.719 196.356 284.522 196.711 284.522 197.127H282.888C282.888 196.652 283.055 196.195 283.389 195.756C283.729 195.311 284.186 194.959 284.76 194.701C285.34 194.443 285.976 194.314 286.667 194.314C287.763 194.314 288.621 194.59 289.242 195.141C289.863 195.686 290.186 196.438 290.209 197.399V201.776C290.209 202.649 290.32 203.344 290.543 203.859V204H288.838ZM286.14 202.761C286.649 202.761 287.133 202.629 287.59 202.365C288.047 202.102 288.378 201.759 288.583 201.337V199.386H287.309C285.316 199.386 284.32 199.969 284.32 201.135C284.32 201.645 284.49 202.043 284.83 202.33C285.17 202.617 285.606 202.761 286.14 202.761ZM299.489 204H297.863V190.5H299.489V204ZM301.919 199.157C301.919 198.226 302.101 197.388 302.464 196.644C302.833 195.899 303.343 195.325 303.993 194.921C304.649 194.517 305.396 194.314 306.234 194.314C307.529 194.314 308.575 194.763 309.372 195.659C310.175 196.556 310.576 197.748 310.576 199.236V199.351C310.576 200.276 310.397 201.108 310.04 201.847C309.688 202.579 309.182 203.15 308.52 203.561C307.863 203.971 307.107 204.176 306.252 204.176C304.963 204.176 303.917 203.728 303.114 202.831C302.317 201.935 301.919 200.748 301.919 199.271V199.157ZM303.554 199.351C303.554 200.405 303.797 201.252 304.283 201.891C304.775 202.529 305.432 202.849 306.252 202.849C307.078 202.849 307.734 202.526 308.221 201.882C308.707 201.231 308.95 200.323 308.95 199.157C308.95 198.114 308.701 197.271 308.203 196.626C307.711 195.976 307.055 195.65 306.234 195.65C305.432 195.65 304.784 195.97 304.292 196.608C303.8 197.247 303.554 198.161 303.554 199.351ZM312.435 199.157C312.435 198.226 312.616 197.388 312.979 196.644C313.349 195.899 313.858 195.325 314.509 194.921C315.165 194.517 315.912 194.314 316.75 194.314C318.045 194.314 319.091 194.763 319.888 195.659C320.69 196.556 321.092 197.748 321.092 199.236V199.351C321.092 200.276 320.913 201.108 320.556 201.847C320.204 202.579 319.697 203.15 319.035 203.561C318.379 203.971 317.623 204.176 316.768 204.176C315.479 204.176 314.433 203.728 313.63 202.831C312.833 201.935 312.435 200.748 312.435 199.271V199.157ZM314.069 199.351C314.069 200.405 314.312 201.252 314.799 201.891C315.291 202.529 315.947 202.849 316.768 202.849C317.594 202.849 318.25 202.526 318.736 201.882C319.223 201.231 319.466 200.323 319.466 199.157C319.466 198.114 319.217 197.271 318.719 196.626C318.227 195.976 317.57 195.65 316.75 195.65C315.947 195.65 315.3 195.97 314.808 196.608C314.315 197.247 314.069 198.161 314.069 199.351ZM326.035 199.597L325.016 200.66V204H323.39V190.5H325.016V198.665L325.886 197.619L328.848 194.49H330.825L327.125 198.463L331.256 204H329.349L326.035 199.597ZM343.34 204C343.246 203.812 343.17 203.479 343.111 202.998C342.355 203.783 341.453 204.176 340.404 204.176C339.467 204.176 338.696 203.912 338.093 203.385C337.495 202.852 337.196 202.178 337.196 201.363C337.196 200.373 337.571 199.605 338.321 199.061C339.077 198.51 340.138 198.234 341.503 198.234H343.085V197.487C343.085 196.919 342.915 196.468 342.575 196.134C342.235 195.794 341.734 195.624 341.072 195.624C340.492 195.624 340.006 195.771 339.613 196.063C339.221 196.356 339.024 196.711 339.024 197.127H337.39C337.39 196.652 337.557 196.195 337.891 195.756C338.23 195.311 338.688 194.959 339.262 194.701C339.842 194.443 340.478 194.314 341.169 194.314C342.265 194.314 343.123 194.59 343.744 195.141C344.365 195.686 344.688 196.438 344.711 197.399V201.776C344.711 202.649 344.822 203.344 345.045 203.859V204H343.34ZM340.642 202.761C341.151 202.761 341.635 202.629 342.092 202.365C342.549 202.102 342.88 201.759 343.085 201.337V199.386H341.811C339.818 199.386 338.822 199.969 338.822 201.135C338.822 201.645 338.992 202.043 339.332 202.33C339.672 202.617 340.108 202.761 340.642 202.761ZM349.716 192.188V194.49H351.491V195.747H349.716V201.645C349.716 202.025 349.795 202.312 349.953 202.506C350.111 202.693 350.381 202.787 350.762 202.787C350.949 202.787 351.207 202.752 351.535 202.682V204C351.107 204.117 350.691 204.176 350.287 204.176C349.561 204.176 349.013 203.956 348.644 203.517C348.274 203.077 348.09 202.453 348.09 201.645V195.747H346.358V194.49H348.09V192.188H349.716ZM363.979 191.203H365.676V200.265C365.676 201.489 365.307 202.447 364.568 203.139C363.836 203.83 362.857 204.176 361.633 204.176C360.361 204.176 359.371 203.851 358.662 203.2C357.953 202.55 357.599 201.639 357.599 200.467H359.286C359.286 201.199 359.485 201.771 359.884 202.181C360.288 202.591 360.871 202.796 361.633 202.796C362.33 202.796 362.893 202.576 363.32 202.137C363.754 201.697 363.974 201.082 363.979 200.291V191.203ZM372.491 204.176C371.202 204.176 370.153 203.754 369.345 202.91C368.536 202.061 368.132 200.927 368.132 199.509V199.21C368.132 198.267 368.311 197.426 368.668 196.688C369.031 195.943 369.535 195.363 370.18 194.947C370.83 194.525 371.533 194.314 372.289 194.314C373.525 194.314 374.486 194.722 375.172 195.536C375.857 196.351 376.2 197.517 376.2 199.034V199.711H369.758C369.781 200.648 370.054 201.407 370.575 201.987C371.103 202.562 371.771 202.849 372.579 202.849C373.153 202.849 373.64 202.731 374.038 202.497C374.437 202.263 374.785 201.952 375.084 201.565L376.077 202.339C375.28 203.563 374.085 204.176 372.491 204.176ZM372.289 195.65C371.633 195.65 371.082 195.891 370.637 196.371C370.191 196.846 369.916 197.514 369.811 198.375H374.574V198.252C374.527 197.426 374.305 196.787 373.906 196.336C373.508 195.879 372.969 195.65 372.289 195.65ZM380.546 192.188V194.49H382.321V195.747H380.546V201.645C380.546 202.025 380.625 202.312 380.783 202.506C380.941 202.693 381.211 202.787 381.592 202.787C381.779 202.787 382.037 202.752 382.365 202.682V204C381.938 204.117 381.521 204.176 381.117 204.176C380.391 204.176 379.843 203.956 379.474 203.517C379.104 203.077 378.92 202.453 378.92 201.645V195.747H377.188V194.49H378.92V192.188H380.546ZM392.512 199.351C392.512 200.798 392.181 201.964 391.519 202.849C390.856 203.733 389.96 204.176 388.829 204.176C387.675 204.176 386.767 203.81 386.104 203.077V207.656H384.479V194.49H385.964L386.043 195.545C386.705 194.725 387.625 194.314 388.803 194.314C389.945 194.314 390.848 194.745 391.51 195.606C392.178 196.468 392.512 197.666 392.512 199.201V199.351ZM390.886 199.166C390.886 198.094 390.657 197.247 390.2 196.626C389.743 196.005 389.116 195.694 388.319 195.694C387.335 195.694 386.597 196.131 386.104 197.004V201.548C386.591 202.415 387.335 202.849 388.337 202.849C389.116 202.849 389.734 202.541 390.191 201.926C390.654 201.305 390.886 200.385 390.886 199.166ZM400.707 204C400.613 203.812 400.537 203.479 400.479 202.998C399.723 203.783 398.82 204.176 397.771 204.176C396.834 204.176 396.063 203.912 395.46 203.385C394.862 202.852 394.563 202.178 394.563 201.363C394.563 200.373 394.938 199.605 395.688 199.061C396.444 198.51 397.505 198.234 398.87 198.234H400.452V197.487C400.452 196.919 400.282 196.468 399.942 196.134C399.603 195.794 399.102 195.624 398.439 195.624C397.859 195.624 397.373 195.771 396.98 196.063C396.588 196.356 396.392 196.711 396.392 197.127H394.757C394.757 196.652 394.924 196.195 395.258 195.756C395.598 195.311 396.055 194.959 396.629 194.701C397.209 194.443 397.845 194.314 398.536 194.314C399.632 194.314 400.49 194.59 401.111 195.141C401.732 195.686 402.055 196.438 402.078 197.399V201.776C402.078 202.649 402.189 203.344 402.412 203.859V204H400.707ZM398.009 202.761C398.519 202.761 399.002 202.629 399.459 202.365C399.916 202.102 400.247 201.759 400.452 201.337V199.386H399.178C397.186 199.386 396.189 199.969 396.189 201.135C396.189 201.645 396.359 202.043 396.699 202.33C397.039 202.617 397.476 202.761 398.009 202.761ZM408.691 202.849C409.271 202.849 409.778 202.673 410.212 202.321C410.646 201.97 410.886 201.53 410.933 201.003H412.471C412.441 201.548 412.254 202.066 411.908 202.559C411.562 203.051 411.1 203.443 410.52 203.736C409.945 204.029 409.336 204.176 408.691 204.176C407.396 204.176 406.365 203.745 405.598 202.884C404.836 202.017 404.455 200.833 404.455 199.333V199.061C404.455 198.135 404.625 197.312 404.965 196.591C405.305 195.87 405.791 195.311 406.424 194.912C407.062 194.514 407.815 194.314 408.683 194.314C409.749 194.314 410.634 194.634 411.337 195.272C412.046 195.911 412.424 196.74 412.471 197.76H410.933C410.886 197.145 410.651 196.641 410.229 196.248C409.813 195.85 409.298 195.65 408.683 195.65C407.856 195.65 407.215 195.949 406.758 196.547C406.307 197.139 406.081 197.997 406.081 199.122V199.43C406.081 200.525 406.307 201.369 406.758 201.961C407.209 202.553 407.854 202.849 408.691 202.849ZM417.203 199.597L416.184 200.66V204H414.558V190.5H416.184V198.665L417.054 197.619L420.016 194.49H421.993L418.293 198.463L422.424 204H420.517L417.203 199.597ZM248.898 220.939C248.74 222.293 248.239 223.339 247.396 224.077C246.558 224.81 245.441 225.176 244.047 225.176C242.535 225.176 241.322 224.634 240.408 223.55C239.5 222.466 239.046 221.016 239.046 219.199V217.969C239.046 216.779 239.257 215.733 239.679 214.831C240.106 213.929 240.71 213.237 241.489 212.757C242.269 212.271 243.171 212.027 244.196 212.027C245.556 212.027 246.646 212.408 247.466 213.17C248.286 213.926 248.764 214.975 248.898 216.316H247.202C247.056 215.297 246.736 214.559 246.244 214.102C245.758 213.645 245.075 213.416 244.196 213.416C243.118 213.416 242.271 213.814 241.656 214.611C241.047 215.408 240.742 216.542 240.742 218.013V219.252C240.742 220.641 241.032 221.745 241.612 222.565C242.192 223.386 243.004 223.796 244.047 223.796C244.984 223.796 245.702 223.585 246.2 223.163C246.704 222.735 247.038 221.994 247.202 220.939H248.898ZM250.774 220.157C250.774 219.226 250.956 218.388 251.319 217.644C251.688 216.899 252.198 216.325 252.849 215.921C253.505 215.517 254.252 215.314 255.09 215.314C256.385 215.314 257.431 215.763 258.228 216.659C259.03 217.556 259.432 218.748 259.432 220.236V220.351C259.432 221.276 259.253 222.108 258.896 222.847C258.544 223.579 258.037 224.15 257.375 224.561C256.719 224.971 255.963 225.176 255.107 225.176C253.818 225.176 252.772 224.728 251.97 223.831C251.173 222.935 250.774 221.748 250.774 220.271V220.157ZM252.409 220.351C252.409 221.405 252.652 222.252 253.139 222.891C253.631 223.529 254.287 223.849 255.107 223.849C255.934 223.849 256.59 223.526 257.076 222.882C257.562 222.231 257.806 221.323 257.806 220.157C257.806 219.114 257.557 218.271 257.059 217.626C256.566 216.976 255.91 216.65 255.09 216.65C254.287 216.65 253.64 216.97 253.147 217.608C252.655 218.247 252.409 219.161 252.409 220.351ZM263.25 215.49L263.294 216.545C263.991 215.725 264.932 215.314 266.115 215.314C267.445 215.314 268.351 215.824 268.831 216.844C269.147 216.387 269.558 216.018 270.062 215.736C270.571 215.455 271.172 215.314 271.863 215.314C273.949 215.314 275.01 216.419 275.045 218.628V225H273.419V218.725C273.419 218.045 273.264 217.538 272.953 217.204C272.643 216.864 272.121 216.694 271.389 216.694C270.785 216.694 270.284 216.876 269.886 217.239C269.487 217.597 269.256 218.08 269.191 218.689V225H267.557V218.769C267.557 217.386 266.88 216.694 265.526 216.694C264.46 216.694 263.73 217.148 263.338 218.057V225H261.712V215.49H263.25ZM285.789 220.351C285.789 221.798 285.458 222.964 284.796 223.849C284.134 224.733 283.237 225.176 282.106 225.176C280.952 225.176 280.044 224.81 279.382 224.077V228.656H277.756V215.49H279.241L279.32 216.545C279.982 215.725 280.902 215.314 282.08 215.314C283.223 215.314 284.125 215.745 284.787 216.606C285.455 217.468 285.789 218.666 285.789 220.201V220.351ZM284.163 220.166C284.163 219.094 283.935 218.247 283.478 217.626C283.021 217.005 282.394 216.694 281.597 216.694C280.612 216.694 279.874 217.131 279.382 218.004V222.548C279.868 223.415 280.612 223.849 281.614 223.849C282.394 223.849 283.012 223.541 283.469 222.926C283.932 222.305 284.163 221.385 284.163 220.166ZM287.683 220.157C287.683 219.226 287.864 218.388 288.228 217.644C288.597 216.899 289.106 216.325 289.757 215.921C290.413 215.517 291.16 215.314 291.998 215.314C293.293 215.314 294.339 215.763 295.136 216.659C295.938 217.556 296.34 218.748 296.34 220.236V220.351C296.34 221.276 296.161 222.108 295.804 222.847C295.452 223.579 294.945 224.15 294.283 224.561C293.627 224.971 292.871 225.176 292.016 225.176C290.727 225.176 289.681 224.728 288.878 223.831C288.081 222.935 287.683 221.748 287.683 220.271V220.157ZM289.317 220.351C289.317 221.405 289.561 222.252 290.047 222.891C290.539 223.529 291.195 223.849 292.016 223.849C292.842 223.849 293.498 223.526 293.984 222.882C294.471 222.231 294.714 221.323 294.714 220.157C294.714 219.114 294.465 218.271 293.967 217.626C293.475 216.976 292.818 216.65 291.998 216.65C291.195 216.65 290.548 216.97 290.056 217.608C289.563 218.247 289.317 219.161 289.317 220.351ZM304.166 222.478C304.166 222.038 303.999 221.698 303.665 221.458C303.337 221.212 302.76 221.001 301.934 220.825C301.113 220.649 300.46 220.438 299.974 220.192C299.493 219.946 299.136 219.653 298.901 219.313C298.673 218.974 298.559 218.569 298.559 218.101C298.559 217.321 298.887 216.662 299.543 216.123C300.205 215.584 301.049 215.314 302.074 215.314C303.152 215.314 304.025 215.593 304.693 216.149C305.367 216.706 305.704 217.418 305.704 218.285H304.069C304.069 217.84 303.879 217.456 303.498 217.134C303.123 216.812 302.648 216.65 302.074 216.65C301.482 216.65 301.02 216.779 300.686 217.037C300.352 217.295 300.185 217.632 300.185 218.048C300.185 218.44 300.34 218.736 300.65 218.936C300.961 219.135 301.521 219.325 302.329 219.507C303.144 219.688 303.803 219.905 304.307 220.157C304.811 220.409 305.183 220.714 305.423 221.071C305.669 221.423 305.792 221.854 305.792 222.363C305.792 223.213 305.452 223.896 304.772 224.411C304.093 224.921 303.211 225.176 302.127 225.176C301.365 225.176 300.691 225.041 300.105 224.771C299.52 224.502 299.06 224.127 298.726 223.646C298.397 223.16 298.233 222.636 298.233 222.073H299.859C299.889 222.618 300.105 223.052 300.51 223.374C300.92 223.69 301.459 223.849 302.127 223.849C302.742 223.849 303.234 223.726 303.604 223.479C303.979 223.228 304.166 222.894 304.166 222.478ZM312.106 225.176C310.817 225.176 309.769 224.754 308.96 223.91C308.151 223.061 307.747 221.927 307.747 220.509V220.21C307.747 219.267 307.926 218.426 308.283 217.688C308.646 216.943 309.15 216.363 309.795 215.947C310.445 215.525 311.148 215.314 311.904 215.314C313.141 215.314 314.102 215.722 314.787 216.536C315.473 217.351 315.815 218.517 315.815 220.034V220.711H309.373C309.396 221.648 309.669 222.407 310.19 222.987C310.718 223.562 311.386 223.849 312.194 223.849C312.769 223.849 313.255 223.731 313.653 223.497C314.052 223.263 314.4 222.952 314.699 222.565L315.692 223.339C314.896 224.563 313.7 225.176 312.106 225.176ZM311.904 216.65C311.248 216.65 310.697 216.891 310.252 217.371C309.807 217.846 309.531 218.514 309.426 219.375H314.189V219.252C314.143 218.426 313.92 217.787 313.521 217.336C313.123 216.879 312.584 216.65 311.904 216.65ZM319.774 221.388H318.307L318.192 212.203H319.897L319.774 221.388ZM318.131 224.183C318.131 223.919 318.21 223.699 318.368 223.523C318.532 223.342 318.772 223.251 319.089 223.251C319.405 223.251 319.646 223.342 319.81 223.523C319.974 223.699 320.056 223.919 320.056 224.183C320.056 224.446 319.974 224.666 319.81 224.842C319.646 225.012 319.405 225.097 319.089 225.097C318.772 225.097 318.532 225.012 318.368 224.842C318.21 224.666 318.131 224.446 318.131 224.183Z" fill="black"/>
</g>
<circle cx="182" cy="180" r="32" fill="#70D68A"/>
<path d="M235.316 268.251V270H228.892V268.251H235.316ZM229.507 257.203V270H227.301V257.203H229.507ZM241.503 270.176C240.8 270.176 240.164 270.062 239.596 269.833C239.033 269.599 238.553 269.273 238.154 268.857C237.762 268.441 237.46 267.952 237.249 267.39C237.038 266.827 236.933 266.221 236.933 265.57V265.219C236.933 264.475 237.041 263.801 237.258 263.197C237.475 262.594 237.776 262.078 238.163 261.65C238.55 261.217 239.007 260.886 239.534 260.657C240.062 260.429 240.633 260.314 241.248 260.314C241.928 260.314 242.522 260.429 243.032 260.657C243.542 260.886 243.964 261.208 244.298 261.624C244.638 262.034 244.89 262.523 245.054 263.092C245.224 263.66 245.309 264.287 245.309 264.973V265.878H237.961V264.357H243.217V264.19C243.205 263.81 243.129 263.452 242.988 263.118C242.854 262.784 242.646 262.515 242.364 262.31C242.083 262.104 241.708 262.002 241.239 262.002C240.888 262.002 240.574 262.078 240.299 262.23C240.029 262.377 239.804 262.591 239.622 262.872C239.44 263.153 239.3 263.493 239.2 263.892C239.106 264.284 239.06 264.727 239.06 265.219V265.57C239.06 265.986 239.115 266.373 239.227 266.73C239.344 267.082 239.514 267.39 239.736 267.653C239.959 267.917 240.229 268.125 240.545 268.277C240.861 268.424 241.222 268.497 241.626 268.497C242.136 268.497 242.59 268.395 242.988 268.189C243.387 267.984 243.732 267.694 244.025 267.319L245.142 268.4C244.937 268.699 244.67 268.986 244.342 269.262C244.014 269.531 243.612 269.751 243.138 269.921C242.669 270.091 242.124 270.176 241.503 270.176ZM249.078 260.49L250.889 263.646L252.734 260.49H255.063L252.181 265.157L255.178 270H252.849L250.915 266.713L248.981 270H246.644L249.632 265.157L246.758 260.49H249.078ZM259.281 260.49V270H257.154V260.49H259.281ZM257.014 257.994C257.014 257.672 257.119 257.405 257.33 257.194C257.547 256.978 257.846 256.869 258.227 256.869C258.602 256.869 258.897 256.978 259.114 257.194C259.331 257.405 259.439 257.672 259.439 257.994C259.439 258.311 259.331 258.574 259.114 258.785C258.897 258.996 258.602 259.102 258.227 259.102C257.846 259.102 257.547 258.996 257.33 258.785C257.119 258.574 257.014 258.311 257.014 257.994Z" fill="#073042"/>
<g filter="url(#filter2_dd_142_320)">
<rect x="226" y="280" width="236" height="87" rx="4" fill="white"/>
<path d="M248.327 297.592H244.214V309H242.535V297.592H238.431V296.203H248.327V297.592ZM255.09 309C254.996 308.812 254.92 308.479 254.861 307.998C254.105 308.783 253.203 309.176 252.154 309.176C251.217 309.176 250.446 308.912 249.843 308.385C249.245 307.852 248.946 307.178 248.946 306.363C248.946 305.373 249.321 304.605 250.071 304.061C250.827 303.51 251.888 303.234 253.253 303.234H254.835V302.487C254.835 301.919 254.665 301.468 254.325 301.134C253.985 300.794 253.484 300.624 252.822 300.624C252.242 300.624 251.756 300.771 251.363 301.063C250.971 301.356 250.774 301.711 250.774 302.127H249.14C249.14 301.652 249.307 301.195 249.641 300.756C249.98 300.311 250.438 299.959 251.012 299.701C251.592 299.443 252.228 299.314 252.919 299.314C254.015 299.314 254.873 299.59 255.494 300.141C256.115 300.686 256.438 301.438 256.461 302.399V306.776C256.461 307.649 256.572 308.344 256.795 308.859V309H255.09ZM252.392 307.761C252.901 307.761 253.385 307.629 253.842 307.365C254.299 307.102 254.63 306.759 254.835 306.337V304.386H253.561C251.568 304.386 250.572 304.969 250.572 306.135C250.572 306.645 250.742 307.043 251.082 307.33C251.422 307.617 251.858 307.761 252.392 307.761ZM261.914 304.597L260.895 305.66V309H259.269V295.5H260.895V303.665L261.765 302.619L264.727 299.49H266.704L263.004 303.463L267.135 309H265.228L261.914 304.597ZM272.403 309.176C271.114 309.176 270.065 308.754 269.257 307.91C268.448 307.061 268.044 305.927 268.044 304.509V304.21C268.044 303.267 268.223 302.426 268.58 301.688C268.943 300.943 269.447 300.363 270.092 299.947C270.742 299.525 271.445 299.314 272.201 299.314C273.438 299.314 274.398 299.722 275.084 300.536C275.77 301.351 276.112 302.517 276.112 304.034V304.711H269.67C269.693 305.648 269.966 306.407 270.487 306.987C271.015 307.562 271.683 307.849 272.491 307.849C273.065 307.849 273.552 307.731 273.95 307.497C274.349 307.263 274.697 306.952 274.996 306.565L275.989 307.339C275.192 308.563 273.997 309.176 272.403 309.176ZM272.201 300.65C271.545 300.65 270.994 300.891 270.549 301.371C270.104 301.846 269.828 302.514 269.723 303.375H274.486V303.252C274.439 302.426 274.217 301.787 273.818 301.336C273.42 300.879 272.881 300.65 272.201 300.65ZM288.838 309C288.744 308.812 288.668 308.479 288.609 307.998C287.854 308.783 286.951 309.176 285.902 309.176C284.965 309.176 284.194 308.912 283.591 308.385C282.993 307.852 282.694 307.178 282.694 306.363C282.694 305.373 283.069 304.605 283.819 304.061C284.575 303.51 285.636 303.234 287.001 303.234H288.583V302.487C288.583 301.919 288.413 301.468 288.073 301.134C287.733 300.794 287.232 300.624 286.57 300.624C285.99 300.624 285.504 300.771 285.111 301.063C284.719 301.356 284.522 301.711 284.522 302.127H282.888C282.888 301.652 283.055 301.195 283.389 300.756C283.729 300.311 284.186 299.959 284.76 299.701C285.34 299.443 285.976 299.314 286.667 299.314C287.763 299.314 288.621 299.59 289.242 300.141C289.863 300.686 290.186 301.438 290.209 302.399V306.776C290.209 307.649 290.32 308.344 290.543 308.859V309H288.838ZM286.14 307.761C286.649 307.761 287.133 307.629 287.59 307.365C288.047 307.102 288.378 306.759 288.583 306.337V304.386H287.309C285.316 304.386 284.32 304.969 284.32 306.135C284.32 306.645 284.49 307.043 284.83 307.33C285.17 307.617 285.606 307.761 286.14 307.761ZM299.489 309H297.863V295.5H299.489V309ZM301.919 304.157C301.919 303.226 302.101 302.388 302.464 301.644C302.833 300.899 303.343 300.325 303.993 299.921C304.649 299.517 305.396 299.314 306.234 299.314C307.529 299.314 308.575 299.763 309.372 300.659C310.175 301.556 310.576 302.748 310.576 304.236V304.351C310.576 305.276 310.397 306.108 310.04 306.847C309.688 307.579 309.182 308.15 308.52 308.561C307.863 308.971 307.107 309.176 306.252 309.176C304.963 309.176 303.917 308.728 303.114 307.831C302.317 306.935 301.919 305.748 301.919 304.271V304.157ZM303.554 304.351C303.554 305.405 303.797 306.252 304.283 306.891C304.775 307.529 305.432 307.849 306.252 307.849C307.078 307.849 307.734 307.526 308.221 306.882C308.707 306.231 308.95 305.323 308.95 304.157C308.95 303.114 308.701 302.271 308.203 301.626C307.711 300.976 307.055 300.65 306.234 300.65C305.432 300.65 304.784 300.97 304.292 301.608C303.8 302.247 303.554 303.161 303.554 304.351ZM312.435 304.157C312.435 303.226 312.616 302.388 312.979 301.644C313.349 300.899 313.858 300.325 314.509 299.921C315.165 299.517 315.912 299.314 316.75 299.314C318.045 299.314 319.091 299.763 319.888 300.659C320.69 301.556 321.092 302.748 321.092 304.236V304.351C321.092 305.276 320.913 306.108 320.556 306.847C320.204 307.579 319.697 308.15 319.035 308.561C318.379 308.971 317.623 309.176 316.768 309.176C315.479 309.176 314.433 308.728 313.63 307.831C312.833 306.935 312.435 305.748 312.435 304.271V304.157ZM314.069 304.351C314.069 305.405 314.312 306.252 314.799 306.891C315.291 307.529 315.947 307.849 316.768 307.849C317.594 307.849 318.25 307.526 318.736 306.882C319.223 306.231 319.466 305.323 319.466 304.157C319.466 303.114 319.217 302.271 318.719 301.626C318.227 300.976 317.57 300.65 316.75 300.65C315.947 300.65 315.3 300.97 314.808 301.608C314.315 302.247 314.069 303.161 314.069 304.351ZM326.035 304.597L325.016 305.66V309H323.39V295.5H325.016V303.665L325.886 302.619L328.848 299.49H330.825L327.125 303.463L331.256 309H329.349L326.035 304.597ZM343.34 309C343.246 308.812 343.17 308.479 343.111 307.998C342.355 308.783 341.453 309.176 340.404 309.176C339.467 309.176 338.696 308.912 338.093 308.385C337.495 307.852 337.196 307.178 337.196 306.363C337.196 305.373 337.571 304.605 338.321 304.061C339.077 303.51 340.138 303.234 341.503 303.234H343.085V302.487C343.085 301.919 342.915 301.468 342.575 301.134C342.235 300.794 341.734 300.624 341.072 300.624C340.492 300.624 340.006 300.771 339.613 301.063C339.221 301.356 339.024 301.711 339.024 302.127H337.39C337.39 301.652 337.557 301.195 337.891 300.756C338.23 300.311 338.688 299.959 339.262 299.701C339.842 299.443 340.478 299.314 341.169 299.314C342.265 299.314 343.123 299.59 343.744 300.141C344.365 300.686 344.688 301.438 344.711 302.399V306.776C344.711 307.649 344.822 308.344 345.045 308.859V309H343.34ZM340.642 307.761C341.151 307.761 341.635 307.629 342.092 307.365C342.549 307.102 342.88 306.759 343.085 306.337V304.386H341.811C339.818 304.386 338.822 304.969 338.822 306.135C338.822 306.645 338.992 307.043 339.332 307.33C339.672 307.617 340.108 307.761 340.642 307.761ZM349.716 297.188V299.49H351.491V300.747H349.716V306.645C349.716 307.025 349.795 307.312 349.953 307.506C350.111 307.693 350.381 307.787 350.762 307.787C350.949 307.787 351.207 307.752 351.535 307.682V309C351.107 309.117 350.691 309.176 350.287 309.176C349.561 309.176 349.013 308.956 348.644 308.517C348.274 308.077 348.09 307.453 348.09 306.645V300.747H346.358V299.49H348.09V297.188H349.716ZM363.979 296.203H365.676V305.265C365.676 306.489 365.307 307.447 364.568 308.139C363.836 308.83 362.857 309.176 361.633 309.176C360.361 309.176 359.371 308.851 358.662 308.2C357.953 307.55 357.599 306.639 357.599 305.467H359.286C359.286 306.199 359.485 306.771 359.884 307.181C360.288 307.591 360.871 307.796 361.633 307.796C362.33 307.796 362.893 307.576 363.32 307.137C363.754 306.697 363.974 306.082 363.979 305.291V296.203ZM372.491 309.176C371.202 309.176 370.153 308.754 369.345 307.91C368.536 307.061 368.132 305.927 368.132 304.509V304.21C368.132 303.267 368.311 302.426 368.668 301.688C369.031 300.943 369.535 300.363 370.18 299.947C370.83 299.525 371.533 299.314 372.289 299.314C373.525 299.314 374.486 299.722 375.172 300.536C375.857 301.351 376.2 302.517 376.2 304.034V304.711H369.758C369.781 305.648 370.054 306.407 370.575 306.987C371.103 307.562 371.771 307.849 372.579 307.849C373.153 307.849 373.64 307.731 374.038 307.497C374.437 307.263 374.785 306.952 375.084 306.565L376.077 307.339C375.28 308.563 374.085 309.176 372.491 309.176ZM372.289 300.65C371.633 300.65 371.082 300.891 370.637 301.371C370.191 301.846 369.916 302.514 369.811 303.375H374.574V303.252C374.527 302.426 374.305 301.787 373.906 301.336C373.508 300.879 372.969 300.65 372.289 300.65ZM380.546 297.188V299.49H382.321V300.747H380.546V306.645C380.546 307.025 380.625 307.312 380.783 307.506C380.941 307.693 381.211 307.787 381.592 307.787C381.779 307.787 382.037 307.752 382.365 307.682V309C381.938 309.117 381.521 309.176 381.117 309.176C380.391 309.176 379.843 308.956 379.474 308.517C379.104 308.077 378.92 307.453 378.92 306.645V300.747H377.188V299.49H378.92V297.188H380.546ZM392.512 304.351C392.512 305.798 392.181 306.964 391.519 307.849C390.856 308.733 389.96 309.176 388.829 309.176C387.675 309.176 386.767 308.81 386.104 308.077V312.656H384.479V299.49H385.964L386.043 300.545C386.705 299.725 387.625 299.314 388.803 299.314C389.945 299.314 390.848 299.745 391.51 300.606C392.178 301.468 392.512 302.666 392.512 304.201V304.351ZM390.886 304.166C390.886 303.094 390.657 302.247 390.2 301.626C389.743 301.005 389.116 300.694 388.319 300.694C387.335 300.694 386.597 301.131 386.104 302.004V306.548C386.591 307.415 387.335 307.849 388.337 307.849C389.116 307.849 389.734 307.541 390.191 306.926C390.654 306.305 390.886 305.385 390.886 304.166ZM400.707 309C400.613 308.812 400.537 308.479 400.479 307.998C399.723 308.783 398.82 309.176 397.771 309.176C396.834 309.176 396.063 308.912 395.46 308.385C394.862 307.852 394.563 307.178 394.563 306.363C394.563 305.373 394.938 304.605 395.688 304.061C396.444 303.51 397.505 303.234 398.87 303.234H400.452V302.487C400.452 301.919 400.282 301.468 399.942 301.134C399.603 300.794 399.102 300.624 398.439 300.624C397.859 300.624 397.373 300.771 396.98 301.063C396.588 301.356 396.392 301.711 396.392 302.127H394.757C394.757 301.652 394.924 301.195 395.258 300.756C395.598 300.311 396.055 299.959 396.629 299.701C397.209 299.443 397.845 299.314 398.536 299.314C399.632 299.314 400.49 299.59 401.111 300.141C401.732 300.686 402.055 301.438 402.078 302.399V306.776C402.078 307.649 402.189 308.344 402.412 308.859V309H400.707ZM398.009 307.761C398.519 307.761 399.002 307.629 399.459 307.365C399.916 307.102 400.247 306.759 400.452 306.337V304.386H399.178C397.186 304.386 396.189 304.969 396.189 306.135C396.189 306.645 396.359 307.043 396.699 307.33C397.039 307.617 397.476 307.761 398.009 307.761ZM408.691 307.849C409.271 307.849 409.778 307.673 410.212 307.321C410.646 306.97 410.886 306.53 410.933 306.003H412.471C412.441 306.548 412.254 307.066 411.908 307.559C411.562 308.051 411.1 308.443 410.52 308.736C409.945 309.029 409.336 309.176 408.691 309.176C407.396 309.176 406.365 308.745 405.598 307.884C404.836 307.017 404.455 305.833 404.455 304.333V304.061C404.455 303.135 404.625 302.312 404.965 301.591C405.305 300.87 405.791 300.311 406.424 299.912C407.062 299.514 407.815 299.314 408.683 299.314C409.749 299.314 410.634 299.634 411.337 300.272C412.046 300.911 412.424 301.74 412.471 302.76H410.933C410.886 302.145 410.651 301.641 410.229 301.248C409.813 300.85 409.298 300.65 408.683 300.65C407.856 300.65 407.215 300.949 406.758 301.547C406.307 302.139 406.081 302.997 406.081 304.122V304.43C406.081 305.525 406.307 306.369 406.758 306.961C407.209 307.553 407.854 307.849 408.691 307.849ZM417.203 304.597L416.184 305.66V309H414.558V295.5H416.184V303.665L417.054 302.619L420.016 299.49H421.993L418.293 303.463L422.424 309H420.517L417.203 304.597ZM248.898 325.939C248.74 327.293 248.239 328.339 247.396 329.077C246.558 329.81 245.441 330.176 244.047 330.176C242.535 330.176 241.322 329.634 240.408 328.55C239.5 327.466 239.046 326.016 239.046 324.199V322.969C239.046 321.779 239.257 320.733 239.679 319.831C240.106 318.929 240.71 318.237 241.489 317.757C242.269 317.271 243.171 317.027 244.196 317.027C245.556 317.027 246.646 317.408 247.466 318.17C248.286 318.926 248.764 319.975 248.898 321.316H247.202C247.056 320.297 246.736 319.559 246.244 319.102C245.758 318.645 245.075 318.416 244.196 318.416C243.118 318.416 242.271 318.814 241.656 319.611C241.047 320.408 240.742 321.542 240.742 323.013V324.252C240.742 325.641 241.032 326.745 241.612 327.565C242.192 328.386 243.004 328.796 244.047 328.796C244.984 328.796 245.702 328.585 246.2 328.163C246.704 327.735 247.038 326.994 247.202 325.939H248.898ZM250.774 325.157C250.774 324.226 250.956 323.388 251.319 322.644C251.688 321.899 252.198 321.325 252.849 320.921C253.505 320.517 254.252 320.314 255.09 320.314C256.385 320.314 257.431 320.763 258.228 321.659C259.03 322.556 259.432 323.748 259.432 325.236V325.351C259.432 326.276 259.253 327.108 258.896 327.847C258.544 328.579 258.037 329.15 257.375 329.561C256.719 329.971 255.963 330.176 255.107 330.176C253.818 330.176 252.772 329.728 251.97 328.831C251.173 327.935 250.774 326.748 250.774 325.271V325.157ZM252.409 325.351C252.409 326.405 252.652 327.252 253.139 327.891C253.631 328.529 254.287 328.849 255.107 328.849C255.934 328.849 256.59 328.526 257.076 327.882C257.562 327.231 257.806 326.323 257.806 325.157C257.806 324.114 257.557 323.271 257.059 322.626C256.566 321.976 255.91 321.65 255.09 321.65C254.287 321.65 253.64 321.97 253.147 322.608C252.655 323.247 252.409 324.161 252.409 325.351ZM263.25 320.49L263.294 321.545C263.991 320.725 264.932 320.314 266.115 320.314C267.445 320.314 268.351 320.824 268.831 321.844C269.147 321.387 269.558 321.018 270.062 320.736C270.571 320.455 271.172 320.314 271.863 320.314C273.949 320.314 275.01 321.419 275.045 323.628V330H273.419V323.725C273.419 323.045 273.264 322.538 272.953 322.204C272.643 321.864 272.121 321.694 271.389 321.694C270.785 321.694 270.284 321.876 269.886 322.239C269.487 322.597 269.256 323.08 269.191 323.689V330H267.557V323.769C267.557 322.386 266.88 321.694 265.526 321.694C264.46 321.694 263.73 322.148 263.338 323.057V330H261.712V320.49H263.25ZM285.789 325.351C285.789 326.798 285.458 327.964 284.796 328.849C284.134 329.733 283.237 330.176 282.106 330.176C280.952 330.176 280.044 329.81 279.382 329.077V333.656H277.756V320.49H279.241L279.32 321.545C279.982 320.725 280.902 320.314 282.08 320.314C283.223 320.314 284.125 320.745 284.787 321.606C285.455 322.468 285.789 323.666 285.789 325.201V325.351ZM284.163 325.166C284.163 324.094 283.935 323.247 283.478 322.626C283.021 322.005 282.394 321.694 281.597 321.694C280.612 321.694 279.874 322.131 279.382 323.004V327.548C279.868 328.415 280.612 328.849 281.614 328.849C282.394 328.849 283.012 328.541 283.469 327.926C283.932 327.305 284.163 326.385 284.163 325.166ZM287.683 325.157C287.683 324.226 287.864 323.388 288.228 322.644C288.597 321.899 289.106 321.325 289.757 320.921C290.413 320.517 291.16 320.314 291.998 320.314C293.293 320.314 294.339 320.763 295.136 321.659C295.938 322.556 296.34 323.748 296.34 325.236V325.351C296.34 326.276 296.161 327.108 295.804 327.847C295.452 328.579 294.945 329.15 294.283 329.561C293.627 329.971 292.871 330.176 292.016 330.176C290.727 330.176 289.681 329.728 288.878 328.831C288.081 327.935 287.683 326.748 287.683 325.271V325.157ZM289.317 325.351C289.317 326.405 289.561 327.252 290.047 327.891C290.539 328.529 291.195 328.849 292.016 328.849C292.842 328.849 293.498 328.526 293.984 327.882C294.471 327.231 294.714 326.323 294.714 325.157C294.714 324.114 294.465 323.271 293.967 322.626C293.475 321.976 292.818 321.65 291.998 321.65C291.195 321.65 290.548 321.97 290.056 322.608C289.563 323.247 289.317 324.161 289.317 325.351ZM304.166 327.478C304.166 327.038 303.999 326.698 303.665 326.458C303.337 326.212 302.76 326.001 301.934 325.825C301.113 325.649 300.46 325.438 299.974 325.192C299.493 324.946 299.136 324.653 298.901 324.313C298.673 323.974 298.559 323.569 298.559 323.101C298.559 322.321 298.887 321.662 299.543 321.123C300.205 320.584 301.049 320.314 302.074 320.314C303.152 320.314 304.025 320.593 304.693 321.149C305.367 321.706 305.704 322.418 305.704 323.285H304.069C304.069 322.84 303.879 322.456 303.498 322.134C303.123 321.812 302.648 321.65 302.074 321.65C301.482 321.65 301.02 321.779 300.686 322.037C300.352 322.295 300.185 322.632 300.185 323.048C300.185 323.44 300.34 323.736 300.65 323.936C300.961 324.135 301.521 324.325 302.329 324.507C303.144 324.688 303.803 324.905 304.307 325.157C304.811 325.409 305.183 325.714 305.423 326.071C305.669 326.423 305.792 326.854 305.792 327.363C305.792 328.213 305.452 328.896 304.772 329.411C304.093 329.921 303.211 330.176 302.127 330.176C301.365 330.176 300.691 330.041 300.105 329.771C299.52 329.502 299.06 329.127 298.726 328.646C298.397 328.16 298.233 327.636 298.233 327.073H299.859C299.889 327.618 300.105 328.052 300.51 328.374C300.92 328.69 301.459 328.849 302.127 328.849C302.742 328.849 303.234 328.726 303.604 328.479C303.979 328.228 304.166 327.894 304.166 327.478ZM312.106 330.176C310.817 330.176 309.769 329.754 308.96 328.91C308.151 328.061 307.747 326.927 307.747 325.509V325.21C307.747 324.267 307.926 323.426 308.283 322.688C308.646 321.943 309.15 321.363 309.795 320.947C310.445 320.525 311.148 320.314 311.904 320.314C313.141 320.314 314.102 320.722 314.787 321.536C315.473 322.351 315.815 323.517 315.815 325.034V325.711H309.373C309.396 326.648 309.669 327.407 310.19 327.987C310.718 328.562 311.386 328.849 312.194 328.849C312.769 328.849 313.255 328.731 313.653 328.497C314.052 328.263 314.4 327.952 314.699 327.565L315.692 328.339C314.896 329.563 313.7 330.176 312.106 330.176ZM311.904 321.65C311.248 321.65 310.697 321.891 310.252 322.371C309.807 322.846 309.531 323.514 309.426 324.375H314.189V324.252C314.143 323.426 313.92 322.787 313.521 322.336C313.123 321.879 312.584 321.65 311.904 321.65ZM319.774 326.388H318.307L318.192 317.203H319.897L319.774 326.388ZM318.131 329.183C318.131 328.919 318.21 328.699 318.368 328.523C318.532 328.342 318.772 328.251 319.089 328.251C319.405 328.251 319.646 328.342 319.81 328.523C319.974 328.699 320.056 328.919 320.056 329.183C320.056 329.446 319.974 329.666 319.81 329.842C319.646 330.012 319.405 330.097 319.089 330.097C318.772 330.097 318.532 330.012 318.368 329.842C318.21 329.666 318.131 329.446 318.131 329.183ZM329.626 330H327.938V317.203H329.626V330ZM334.921 318.188V320.49H336.696V321.747H334.921V327.645C334.921 328.025 335 328.312 335.158 328.506C335.316 328.693 335.586 328.787 335.967 328.787C336.154 328.787 336.412 328.752 336.74 328.682V330C336.312 330.117 335.896 330.176 335.492 330.176C334.766 330.176 334.218 329.956 333.849 329.517C333.479 329.077 333.295 328.453 333.295 327.645V321.747H331.563V320.49H333.295V318.188H334.921ZM349.105 327.478C349.105 327.038 348.938 326.698 348.604 326.458C348.276 326.212 347.699 326.001 346.873 325.825C346.053 325.649 345.399 325.438 344.913 325.192C344.433 324.946 344.075 324.653 343.841 324.313C343.612 323.974 343.498 323.569 343.498 323.101C343.498 322.321 343.826 321.662 344.482 321.123C345.145 320.584 345.988 320.314 347.014 320.314C348.092 320.314 348.965 320.593 349.633 321.149C350.307 321.706 350.644 322.418 350.644 323.285H349.009C349.009 322.84 348.818 322.456 348.438 322.134C348.062 321.812 347.588 321.65 347.014 321.65C346.422 321.65 345.959 321.779 345.625 322.037C345.291 322.295 345.124 322.632 345.124 323.048C345.124 323.44 345.279 323.736 345.59 323.936C345.9 324.135 346.46 324.325 347.269 324.507C348.083 324.688 348.742 324.905 349.246 325.157C349.75 325.409 350.122 325.714 350.362 326.071C350.608 326.423 350.731 326.854 350.731 327.363C350.731 328.213 350.392 328.896 349.712 329.411C349.032 329.921 348.15 330.176 347.066 330.176C346.305 330.176 345.631 330.041 345.045 329.771C344.459 329.502 343.999 329.127 343.665 328.646C343.337 328.16 343.173 327.636 343.173 327.073H344.799C344.828 327.618 345.045 328.052 345.449 328.374C345.859 328.69 346.398 328.849 347.066 328.849C347.682 328.849 348.174 328.726 348.543 328.479C348.918 328.228 349.105 327.894 349.105 327.478ZM354.866 330H353.24V320.49H354.866V330ZM353.108 317.968C353.108 317.704 353.188 317.481 353.346 317.3C353.51 317.118 353.75 317.027 354.066 317.027C354.383 317.027 354.623 317.118 354.787 317.3C354.951 317.481 355.033 317.704 355.033 317.968C355.033 318.231 354.951 318.451 354.787 318.627C354.623 318.803 354.383 318.891 354.066 318.891C353.75 318.891 353.51 318.803 353.346 318.627C353.188 318.451 353.108 318.231 353.108 317.968ZM359.256 320.49L359.3 321.545C359.997 320.725 360.938 320.314 362.121 320.314C363.451 320.314 364.356 320.824 364.837 321.844C365.153 321.387 365.563 321.018 366.067 320.736C366.577 320.455 367.178 320.314 367.869 320.314C369.955 320.314 371.016 321.419 371.051 323.628V330H369.425V323.725C369.425 323.045 369.27 322.538 368.959 322.204C368.648 321.864 368.127 321.694 367.395 321.694C366.791 321.694 366.29 321.876 365.892 322.239C365.493 322.597 365.262 323.08 365.197 323.689V330H363.562V323.769C363.562 322.386 362.886 321.694 361.532 321.694C360.466 321.694 359.736 322.148 359.344 323.057V330H357.718V320.49H359.256ZM381.795 325.351C381.795 326.798 381.464 327.964 380.802 328.849C380.14 329.733 379.243 330.176 378.112 330.176C376.958 330.176 376.05 329.81 375.388 329.077V333.656H373.762V320.49H375.247L375.326 321.545C375.988 320.725 376.908 320.314 378.086 320.314C379.229 320.314 380.131 320.745 380.793 321.606C381.461 322.468 381.795 323.666 381.795 325.201V325.351ZM380.169 325.166C380.169 324.094 379.94 323.247 379.483 322.626C379.026 322.005 378.399 321.694 377.603 321.694C376.618 321.694 375.88 322.131 375.388 323.004V327.548C375.874 328.415 376.618 328.849 377.62 328.849C378.399 328.849 379.018 328.541 379.475 327.926C379.938 327.305 380.169 326.385 380.169 325.166ZM385.886 330H384.26V316.5H385.886V330ZM390.513 330H388.887V320.49H390.513V330ZM388.755 317.968C388.755 317.704 388.834 317.481 388.992 317.3C389.156 317.118 389.396 317.027 389.713 317.027C390.029 317.027 390.27 317.118 390.434 317.3C390.598 317.481 390.68 317.704 390.68 317.968C390.68 318.231 390.598 318.451 390.434 318.627C390.27 318.803 390.029 318.891 389.713 318.891C389.396 318.891 389.156 318.803 388.992 318.627C388.834 318.451 388.755 318.231 388.755 317.968ZM393.918 330V321.747H392.415V320.49H393.918V319.682C393.918 318.621 394.22 317.795 394.823 317.203C395.433 316.611 396.291 316.315 397.398 316.315C398.055 316.315 398.884 316.494 399.886 316.852L399.613 318.223C398.881 317.93 398.184 317.783 397.521 317.783C396.824 317.783 396.32 317.941 396.01 318.258C395.705 318.568 395.553 319.037 395.553 319.664V320.49H397.495V321.747H395.553V330H393.918ZM400.694 330H399.06V320.49H400.694V330ZM407.536 330.176C406.247 330.176 405.198 329.754 404.39 328.91C403.581 328.061 403.177 326.927 403.177 325.509V325.21C403.177 324.267 403.355 323.426 403.713 322.688C404.076 321.943 404.58 321.363 405.225 320.947C405.875 320.525 406.578 320.314 407.334 320.314C408.57 320.314 409.531 320.722 410.217 321.536C410.902 322.351 411.245 323.517 411.245 325.034V325.711H404.803C404.826 326.648 405.099 327.407 405.62 327.987C406.147 328.562 406.815 328.849 407.624 328.849C408.198 328.849 408.685 328.731 409.083 328.497C409.481 328.263 409.83 327.952 410.129 327.565L411.122 328.339C410.325 329.563 409.13 330.176 407.536 330.176ZM407.334 321.65C406.678 321.65 406.127 321.891 405.682 322.371C405.236 322.846 404.961 323.514 404.855 324.375H409.619V324.252C409.572 323.426 409.35 322.787 408.951 322.336C408.553 321.879 408.014 321.65 407.334 321.65ZM418.922 327.478C418.922 327.038 418.755 326.698 418.421 326.458C418.093 326.212 417.516 326.001 416.689 325.825C415.869 325.649 415.216 325.438 414.729 325.192C414.249 324.946 413.892 324.653 413.657 324.313C413.429 323.974 413.314 323.569 413.314 323.101C413.314 322.321 413.643 321.662 414.299 321.123C414.961 320.584 415.805 320.314 416.83 320.314C417.908 320.314 418.781 320.593 419.449 321.149C420.123 321.706 420.46 322.418 420.46 323.285H418.825C418.825 322.84 418.635 322.456 418.254 322.134C417.879 321.812 417.404 321.65 416.83 321.65C416.238 321.65 415.775 321.779 415.441 322.037C415.107 322.295 414.94 322.632 414.94 323.048C414.94 323.44 415.096 323.736 415.406 323.936C415.717 324.135 416.276 324.325 417.085 324.507C417.899 324.688 418.559 324.905 419.062 325.157C419.566 325.409 419.938 325.714 420.179 326.071C420.425 326.423 420.548 326.854 420.548 327.363C420.548 328.213 420.208 328.896 419.528 329.411C418.849 329.921 417.967 330.176 416.883 330.176C416.121 330.176 415.447 330.041 414.861 329.771C414.275 329.502 413.815 329.127 413.481 328.646C413.153 328.16 412.989 327.636 412.989 327.073H414.615C414.645 327.618 414.861 328.052 415.266 328.374C415.676 328.69 416.215 328.849 416.883 328.849C417.498 328.849 417.99 328.726 418.359 328.479C418.734 328.228 418.922 327.894 418.922 327.478ZM436.895 317.203V325.904C436.889 327.111 436.508 328.099 435.752 328.866C435.002 329.634 433.982 330.064 432.693 330.158L432.245 330.176C430.845 330.176 429.729 329.798 428.896 329.042C428.064 328.286 427.643 327.246 427.631 325.922V317.203H429.301V325.869C429.301 326.795 429.556 327.516 430.065 328.031C430.575 328.541 431.302 328.796 432.245 328.796C433.2 328.796 433.93 328.541 434.434 328.031C434.943 327.521 435.198 326.804 435.198 325.878V317.203H436.895ZM441.618 330H439.931V317.203H441.618V330ZM238.835 346.166C238.835 344.707 239.181 343.535 239.872 342.65C240.563 341.76 241.469 341.314 242.588 341.314C243.701 341.314 244.583 341.695 245.233 342.457V337.5H246.859V351H245.365L245.286 349.98C244.636 350.777 243.73 351.176 242.57 351.176C241.469 351.176 240.569 350.725 239.872 349.822C239.181 348.92 238.835 347.742 238.835 346.289V346.166ZM240.461 346.351C240.461 347.429 240.684 348.272 241.129 348.882C241.574 349.491 242.189 349.796 242.975 349.796C244.006 349.796 244.759 349.333 245.233 348.407V344.039C244.747 343.143 244 342.694 242.992 342.694C242.195 342.694 241.574 343.002 241.129 343.617C240.684 344.232 240.461 345.144 240.461 346.351ZM253.587 351.176C252.298 351.176 251.249 350.754 250.44 349.91C249.632 349.061 249.228 347.927 249.228 346.509V346.21C249.228 345.267 249.406 344.426 249.764 343.688C250.127 342.943 250.631 342.363 251.275 341.947C251.926 341.525 252.629 341.314 253.385 341.314C254.621 341.314 255.582 341.722 256.268 342.536C256.953 343.351 257.296 344.517 257.296 346.034V346.711H250.854C250.877 347.648 251.149 348.407 251.671 348.987C252.198 349.562 252.866 349.849 253.675 349.849C254.249 349.849 254.735 349.731 255.134 349.497C255.532 349.263 255.881 348.952 256.18 348.565L257.173 349.339C256.376 350.563 255.181 351.176 253.587 351.176ZM253.385 342.65C252.729 342.65 252.178 342.891 251.732 343.371C251.287 343.846 251.012 344.514 250.906 345.375H255.67V345.252C255.623 344.426 255.4 343.787 255.002 343.336C254.604 342.879 254.064 342.65 253.385 342.65ZM262.45 348.794L264.806 341.49H266.467L263.057 351H261.817L258.372 341.49H260.033L262.45 348.794ZM272.104 351.176C270.815 351.176 269.767 350.754 268.958 349.91C268.149 349.061 267.745 347.927 267.745 346.509V346.21C267.745 345.267 267.924 344.426 268.281 343.688C268.645 342.943 269.148 342.363 269.793 341.947C270.443 341.525 271.146 341.314 271.902 341.314C273.139 341.314 274.1 341.722 274.785 342.536C275.471 343.351 275.813 344.517 275.813 346.034V346.711H269.371C269.395 347.648 269.667 348.407 270.188 348.987C270.716 349.562 271.384 349.849 272.192 349.849C272.767 349.849 273.253 349.731 273.651 349.497C274.05 349.263 274.398 348.952 274.697 348.565L275.69 349.339C274.894 350.563 273.698 351.176 272.104 351.176ZM271.902 342.65C271.246 342.65 270.695 342.891 270.25 343.371C269.805 343.846 269.529 344.514 269.424 345.375H274.188V345.252C274.141 344.426 273.918 343.787 273.52 343.336C273.121 342.879 272.582 342.65 271.902 342.65ZM279.72 351H278.094V337.5H279.72V351ZM282.149 346.157C282.149 345.226 282.331 344.388 282.694 343.644C283.063 342.899 283.573 342.325 284.224 341.921C284.88 341.517 285.627 341.314 286.465 341.314C287.76 341.314 288.806 341.763 289.603 342.659C290.405 343.556 290.807 344.748 290.807 346.236V346.351C290.807 347.276 290.628 348.108 290.271 348.847C289.919 349.579 289.412 350.15 288.75 350.561C288.094 350.971 287.338 351.176 286.482 351.176C285.193 351.176 284.147 350.728 283.345 349.831C282.548 348.935 282.149 347.748 282.149 346.271V346.157ZM283.784 346.351C283.784 347.405 284.027 348.252 284.514 348.891C285.006 349.529 285.662 349.849 286.482 349.849C287.309 349.849 287.965 349.526 288.451 348.882C288.938 348.231 289.181 347.323 289.181 346.157C289.181 345.114 288.932 344.271 288.434 343.626C287.941 342.976 287.285 342.65 286.465 342.65C285.662 342.65 285.015 342.97 284.522 343.608C284.03 344.247 283.784 345.161 283.784 346.351ZM301.129 346.351C301.129 347.798 300.798 348.964 300.136 349.849C299.474 350.733 298.577 351.176 297.446 351.176C296.292 351.176 295.384 350.81 294.722 350.077V354.656H293.096V341.49H294.581L294.66 342.545C295.322 341.725 296.242 341.314 297.42 341.314C298.562 341.314 299.465 341.745 300.127 342.606C300.795 343.468 301.129 344.666 301.129 346.201V346.351ZM299.503 346.166C299.503 345.094 299.274 344.247 298.817 343.626C298.36 343.005 297.733 342.694 296.937 342.694C295.952 342.694 295.214 343.131 294.722 344.004V348.548C295.208 349.415 295.952 349.849 296.954 349.849C297.733 349.849 298.352 349.541 298.809 348.926C299.271 348.305 299.503 347.385 299.503 346.166ZM304.982 341.49L305.026 342.545C305.724 341.725 306.664 341.314 307.848 341.314C309.178 341.314 310.083 341.824 310.563 342.844C310.88 342.387 311.29 342.018 311.794 341.736C312.304 341.455 312.904 341.314 313.596 341.314C315.682 341.314 316.742 342.419 316.777 344.628V351H315.151V344.725C315.151 344.045 314.996 343.538 314.686 343.204C314.375 342.864 313.854 342.694 313.121 342.694C312.518 342.694 312.017 342.876 311.618 343.239C311.22 343.597 310.988 344.08 310.924 344.689V351H309.289V344.769C309.289 343.386 308.612 342.694 307.259 342.694C306.192 342.694 305.463 343.148 305.07 344.057V351H303.444V341.49H304.982ZM323.435 351.176C322.146 351.176 321.097 350.754 320.288 349.91C319.479 349.061 319.075 347.927 319.075 346.509V346.21C319.075 345.267 319.254 344.426 319.611 343.688C319.975 342.943 320.479 342.363 321.123 341.947C321.773 341.525 322.477 341.314 323.232 341.314C324.469 341.314 325.43 341.722 326.115 342.536C326.801 343.351 327.144 344.517 327.144 346.034V346.711H320.701C320.725 347.648 320.997 348.407 321.519 348.987C322.046 349.562 322.714 349.849 323.522 349.849C324.097 349.849 324.583 349.731 324.981 349.497C325.38 349.263 325.729 348.952 326.027 348.565L327.021 349.339C326.224 350.563 325.028 351.176 323.435 351.176ZM323.232 342.65C322.576 342.65 322.025 342.891 321.58 343.371C321.135 343.846 320.859 344.514 320.754 345.375H325.518V345.252C325.471 344.426 325.248 343.787 324.85 343.336C324.451 342.879 323.912 342.65 323.232 342.65ZM330.821 341.49L330.874 342.686C331.601 341.771 332.55 341.314 333.722 341.314C335.731 341.314 336.745 342.448 336.763 344.716V351H335.137V344.707C335.131 344.021 334.973 343.515 334.662 343.187C334.357 342.858 333.88 342.694 333.229 342.694C332.702 342.694 332.239 342.835 331.841 343.116C331.442 343.397 331.132 343.767 330.909 344.224V351H329.283V341.49H330.821ZM341.671 339.188V341.49H343.446V342.747H341.671V348.645C341.671 349.025 341.75 349.312 341.908 349.506C342.066 349.693 342.336 349.787 342.717 349.787C342.904 349.787 343.162 349.752 343.49 349.682V351C343.062 351.117 342.646 351.176 342.242 351.176C341.516 351.176 340.968 350.956 340.599 350.517C340.229 350.077 340.045 349.453 340.045 348.645V342.747H338.313V341.49H340.045V339.188H341.671ZM349.888 346.157C349.888 345.226 350.069 344.388 350.433 343.644C350.802 342.899 351.312 342.325 351.962 341.921C352.618 341.517 353.365 341.314 354.203 341.314C355.498 341.314 356.544 341.763 357.341 342.659C358.144 343.556 358.545 344.748 358.545 346.236V346.351C358.545 347.276 358.366 348.108 358.009 348.847C357.657 349.579 357.15 350.15 356.488 350.561C355.832 350.971 355.076 351.176 354.221 351.176C352.932 351.176 351.886 350.728 351.083 349.831C350.286 348.935 349.888 347.748 349.888 346.271V346.157ZM351.522 346.351C351.522 347.405 351.766 348.252 352.252 348.891C352.744 349.529 353.4 349.849 354.221 349.849C355.047 349.849 355.703 349.526 356.189 348.882C356.676 348.231 356.919 347.323 356.919 346.157C356.919 345.114 356.67 344.271 356.172 343.626C355.68 342.976 355.023 342.65 354.203 342.65C353.4 342.65 352.753 342.97 352.261 343.608C351.769 344.247 351.522 345.161 351.522 346.351ZM362.372 341.49L362.425 342.686C363.151 341.771 364.101 341.314 365.272 341.314C367.282 341.314 368.296 342.448 368.313 344.716V351H366.688V344.707C366.682 344.021 366.523 343.515 366.213 343.187C365.908 342.858 365.431 342.694 364.78 342.694C364.253 342.694 363.79 342.835 363.392 343.116C362.993 343.397 362.683 343.767 362.46 344.224V351H360.834V341.49H362.372ZM383.052 347.66H377.69L376.486 351H374.746L379.633 338.203H381.109L386.005 351H384.273L383.052 347.66ZM378.2 346.271H382.551L380.371 340.286L378.2 346.271ZM389.261 341.49L389.313 342.686C390.04 341.771 390.989 341.314 392.161 341.314C394.171 341.314 395.185 342.448 395.202 344.716V351H393.576V344.707C393.57 344.021 393.412 343.515 393.102 343.187C392.797 342.858 392.319 342.694 391.669 342.694C391.142 342.694 390.679 342.835 390.28 343.116C389.882 343.397 389.571 343.767 389.349 344.224V351H387.723V341.49H389.261ZM397.509 346.166C397.509 344.707 397.854 343.535 398.546 342.65C399.237 341.76 400.143 341.314 401.262 341.314C402.375 341.314 403.257 341.695 403.907 342.457V337.5H405.533V351H404.039L403.96 349.98C403.31 350.777 402.404 351.176 401.244 351.176C400.143 351.176 399.243 350.725 398.546 349.822C397.854 348.92 397.509 347.742 397.509 346.289V346.166ZM399.135 346.351C399.135 347.429 399.357 348.272 399.803 348.882C400.248 349.491 400.863 349.796 401.648 349.796C402.68 349.796 403.433 349.333 403.907 348.407V344.039C403.421 343.143 402.674 342.694 401.666 342.694C400.869 342.694 400.248 343.002 399.803 343.617C399.357 344.232 399.135 345.144 399.135 346.351ZM412.911 342.949C412.665 342.908 412.398 342.888 412.111 342.888C411.045 342.888 410.321 343.342 409.94 344.25V351H408.314V341.49H409.896L409.923 342.589C410.456 341.739 411.212 341.314 412.19 341.314C412.507 341.314 412.747 341.355 412.911 341.438V342.949ZM414.058 346.157C414.058 345.226 414.239 344.388 414.603 343.644C414.972 342.899 415.481 342.325 416.132 341.921C416.788 341.517 417.535 341.314 418.373 341.314C419.668 341.314 420.714 341.763 421.511 342.659C422.313 343.556 422.715 344.748 422.715 346.236V346.351C422.715 347.276 422.536 348.108 422.179 348.847C421.827 349.579 421.32 350.15 420.658 350.561C420.002 350.971 419.246 351.176 418.391 351.176C417.102 351.176 416.056 350.728 415.253 349.831C414.456 348.935 414.058 347.748 414.058 346.271V346.157ZM415.692 346.351C415.692 347.405 415.936 348.252 416.422 348.891C416.914 349.529 417.57 349.849 418.391 349.849C419.217 349.849 419.873 349.526 420.359 348.882C420.846 348.231 421.089 347.323 421.089 346.157C421.089 345.114 420.84 344.271 420.342 343.626C419.85 342.976 419.193 342.65 418.373 342.65C417.57 342.65 416.923 342.97 416.431 343.608C415.938 344.247 415.692 345.161 415.692 346.351ZM426.771 351H425.145V341.49H426.771V351ZM425.013 338.968C425.013 338.704 425.092 338.481 425.25 338.3C425.414 338.118 425.654 338.027 425.971 338.027C426.287 338.027 426.527 338.118 426.691 338.3C426.855 338.481 426.938 338.704 426.938 338.968C426.938 339.231 426.855 339.451 426.691 339.627C426.527 339.803 426.287 339.891 425.971 339.891C425.654 339.891 425.414 339.803 425.25 339.627C425.092 339.451 425.013 339.231 425.013 338.968ZM429.235 346.166C429.235 344.707 429.581 343.535 430.272 342.65C430.964 341.76 431.869 341.314 432.988 341.314C434.102 341.314 434.983 341.695 435.634 342.457V337.5H437.26V351H435.766L435.687 349.98C435.036 350.777 434.131 351.176 432.971 351.176C431.869 351.176 430.97 350.725 430.272 349.822C429.581 348.92 429.235 347.742 429.235 346.289V346.166ZM430.861 346.351C430.861 347.429 431.084 348.272 431.529 348.882C431.975 349.491 432.59 349.796 433.375 349.796C434.406 349.796 435.159 349.333 435.634 348.407V344.039C435.147 343.143 434.4 342.694 433.393 342.694C432.596 342.694 431.975 343.002 431.529 343.617C431.084 344.232 430.861 345.144 430.861 346.351ZM440.076 350.147C440.076 349.866 440.158 349.632 440.322 349.444C440.492 349.257 440.744 349.163 441.078 349.163C441.412 349.163 441.664 349.257 441.834 349.444C442.01 349.632 442.098 349.866 442.098 350.147C442.098 350.417 442.01 350.643 441.834 350.824C441.664 351.006 441.412 351.097 441.078 351.097C440.744 351.097 440.492 351.006 440.322 350.824C440.158 350.643 440.076 350.417 440.076 350.147Z" fill="black"/>
</g>
<circle cx="182" cy="285" r="32" fill="#073042"/>
<path d="M235.316 394.251V396H228.892V394.251H235.316ZM229.507 383.203V396H227.301V383.203H229.507ZM241.503 396.176C240.8 396.176 240.164 396.062 239.596 395.833C239.033 395.599 238.553 395.273 238.154 394.857C237.762 394.441 237.46 393.952 237.249 393.39C237.038 392.827 236.933 392.221 236.933 391.57V391.219C236.933 390.475 237.041 389.801 237.258 389.197C237.475 388.594 237.776 388.078 238.163 387.65C238.55 387.217 239.007 386.886 239.534 386.657C240.062 386.429 240.633 386.314 241.248 386.314C241.928 386.314 242.522 386.429 243.032 386.657C243.542 386.886 243.964 387.208 244.298 387.624C244.638 388.034 244.89 388.523 245.054 389.092C245.224 389.66 245.309 390.287 245.309 390.973V391.878H237.961V390.357H243.217V390.19C243.205 389.81 243.129 389.452 242.988 389.118C242.854 388.784 242.646 388.515 242.364 388.31C242.083 388.104 241.708 388.002 241.239 388.002C240.888 388.002 240.574 388.078 240.299 388.23C240.029 388.377 239.804 388.591 239.622 388.872C239.44 389.153 239.3 389.493 239.2 389.892C239.106 390.284 239.06 390.727 239.06 391.219V391.57C239.06 391.986 239.115 392.373 239.227 392.73C239.344 393.082 239.514 393.39 239.736 393.653C239.959 393.917 240.229 394.125 240.545 394.277C240.861 394.424 241.222 394.497 241.626 394.497C242.136 394.497 242.59 394.395 242.988 394.189C243.387 393.984 243.732 393.694 244.025 393.319L245.142 394.4C244.937 394.699 244.67 394.986 244.342 395.262C244.014 395.531 243.612 395.751 243.138 395.921C242.669 396.091 242.124 396.176 241.503 396.176ZM249.078 386.49L250.889 389.646L252.734 386.49H255.063L252.181 391.157L255.178 396H252.849L250.915 392.713L248.981 396H246.644L249.632 391.157L246.758 386.49H249.078ZM259.281 386.49V396H257.154V386.49H259.281ZM257.014 383.994C257.014 383.672 257.119 383.405 257.33 383.194C257.547 382.978 257.846 382.869 258.227 382.869C258.602 382.869 258.897 382.978 259.114 383.194C259.331 383.405 259.439 383.672 259.439 383.994C259.439 384.311 259.331 384.574 259.114 384.785C258.897 384.996 258.602 385.102 258.227 385.102C257.846 385.102 257.547 384.996 257.33 384.785C257.119 384.574 257.014 384.311 257.014 383.994Z" fill="#018786"/>
<circle cx="182" cy="411" r="32" fill="#70D68A"/>
</g>
</g>
<defs>
<filter id="filter0_d_142_320" x="108" y="70" width="396" height="676" filterUnits="userSpaceOnUse" color-interpolation-filters="sRGB">
<feFlood flood-opacity="0" result="BackgroundImageFix"/>
<feColorMatrix in="SourceAlpha" type="matrix" values="0 0 0 0 0 0 0 0 0 0 0 0 0 0 0 0 0 0 127 0" result="hardAlpha"/>
<feMorphology radius="2" operator="dilate" in="SourceAlpha" result="effect1_dropShadow_142_320"/>
<feOffset/>
<feGaussianBlur stdDeviation="8"/>
<feColorMatrix type="matrix" values="0 0 0 0 0.235294 0 0 0 0 0.25098 0 0 0 0 0.262745 0 0 0 0.15 0"/>
<feBlend mode="normal" in2="BackgroundImageFix" result="effect1_dropShadow_142_320"/>
<feBlend mode="normal" in="SourceGraphic" in2="effect1_dropShadow_142_320" result="shape"/>
</filter>
<filter id="filter1_dd_142_320" x="222" y="172" width="244" height="74" filterUnits="userSpaceOnUse" color-interpolation-filters="sRGB">
<feFlood flood-opacity="0" result="BackgroundImageFix"/>
<feColorMatrix in="SourceAlpha" type="matrix" values="0 0 0 0 0 0 0 0 0 0 0 0 0 0 0 0 0 0 127 0" result="hardAlpha"/>
<feMorphology radius="1" operator="dilate" in="SourceAlpha" result="effect1_dropShadow_142_320"/>
<feOffset dy="1"/>
<feGaussianBlur stdDeviation="1.5"/>
<feColorMatrix type="matrix" values="0 0 0 0 0.235294 0 0 0 0 0.25098 0 0 0 0 0.262745 0 0 0 0.15 0"/>
<feBlend mode="normal" in2="BackgroundImageFix" result="effect1_dropShadow_142_320"/>
<feColorMatrix in="SourceAlpha" type="matrix" values="0 0 0 0 0 0 0 0 0 0 0 0 0 0 0 0 0 0 127 0" result="hardAlpha"/>
<feOffset dy="1"/>
<feGaussianBlur stdDeviation="1"/>
<feColorMatrix type="matrix" values="0 0 0 0 0.235294 0 0 0 0 0.25098 0 0 0 0 0.262745 0 0 0 0.3 0"/>
<feBlend mode="normal" in2="effect1_dropShadow_142_320" result="effect2_dropShadow_142_320"/>
<feBlend mode="normal" in="SourceGraphic" in2="effect2_dropShadow_142_320" result="shape"/>
</filter>
<filter id="filter2_dd_142_320" x="222" y="277" width="244" height="95" filterUnits="userSpaceOnUse" color-interpolation-filters="sRGB">
<feFlood flood-opacity="0" result="BackgroundImageFix"/>
<feColorMatrix in="SourceAlpha" type="matrix" values="0 0 0 0 0 0 0 0 0 0 0 0 0 0 0 0 0 0 127 0" result="hardAlpha"/>
<feMorphology radius="1" operator="dilate" in="SourceAlpha" result="effect1_dropShadow_142_320"/>
<feOffset dy="1"/>
<feGaussianBlur stdDeviation="1.5"/>
<feColorMatrix type="matrix" values="0 0 0 0 0.235294 0 0 0 0 0.25098 0 0 0 0 0.262745 0 0 0 0.15 0"/>
<feBlend mode="normal" in2="BackgroundImageFix" result="effect1_dropShadow_142_320"/>
<feColorMatrix in="SourceAlpha" type="matrix" values="0 0 0 0 0 0 0 0 0 0 0 0 0 0 0 0 0 0 127 0" result="hardAlpha"/>
<feOffset dy="1"/>
<feGaussianBlur stdDeviation="1"/>
<feColorMatrix type="matrix" values="0 0 0 0 0.235294 0 0 0 0 0.25098 0 0 0 0 0.262745 0 0 0 0.3 0"/>
<feBlend mode="normal" in2="effect1_dropShadow_142_320" result="effect2_dropShadow_142_320"/>
<feBlend mode="normal" in="SourceGraphic" in2="effect2_dropShadow_142_320" result="shape"/>
</filter>
<clipPath id="clip0_142_320">
<rect width="612" height="400" fill="white"/>
</clipPath>
</defs>
</svg>
